<svg width="42" height="42" viewBox="0 0 42 42" fill="none" xmlns="http://www.w3.org/2000/svg">
<path d="M30.2365 22.3968C29.9381 22.269 29.6401 22.269 29.3417 22.4392L21.1629 28.0621L17.7977 25.8044C17.5422 25.6341 17.1589 25.6341 16.903 25.7619C16.6047 25.9321 16.4769 26.2305 16.4769 26.5713C16.6047 27.7215 15.4545 28.3179 15.412 28.3179C15.1564 28.4457 14.9434 28.744 14.9434 29.0421C14.9434 29.3404 15.0711 29.6384 15.3695 29.8087L20.9073 33.2166C21.0351 33.3019 21.2057 33.3444 21.3334 33.3444C21.5037 33.3444 21.6318 33.3019 21.7595 33.2166L30.2792 28.1049C30.5347 27.9346 30.7053 27.6788 30.7053 27.3808L30.705 23.1634C30.705 22.8651 30.5347 22.5671 30.2364 22.3968L30.2365 22.3968Z" fill="white"/>
<path d="M33.3465 17.3699L21.845 8.85022C21.5466 8.63717 21.1633 8.63717 20.8653 8.85022L8.68214 17.0717C8.4266 17.242 8.29883 17.4978 8.29883 17.7958C8.29883 18.0942 8.4266 18.3497 8.68214 18.52L12.6012 21.076C12.5587 21.4593 12.4734 21.8855 12.4309 22.354C10.9827 22.5671 9.87488 23.8023 9.87488 25.2934C9.87488 26.6139 10.7268 27.7217 11.9195 28.105C11.5787 29.4254 10.1729 29.5532 9.87488 29.5532C9.40628 29.5532 9.02298 29.9366 9.02298 30.4051C9.02298 30.8737 9.4063 31.257 9.87488 31.257C11.2806 31.257 13.2828 30.4051 13.6236 28.1474C14.9016 27.8066 15.8388 26.6563 15.8388 25.2933C15.8388 24.1006 15.1572 23.0781 14.135 22.6096C14.1775 22.354 14.2203 22.0985 14.2203 21.8854C14.3481 21.8854 14.4758 21.8429 14.6036 21.7577L19.6729 18.2644L20.6953 18.9461L16.18 22.0557C15.9669 22.2259 15.7967 22.4818 15.7967 22.7373C15.7967 22.9929 15.9244 23.2912 16.1375 23.419L20.5251 26.6138C20.6954 26.7416 20.8659 26.7841 21.0362 26.7841C21.2065 26.7841 21.377 26.7416 21.5048 26.6563L33.3046 18.7756C33.5176 18.6054 33.6879 18.3495 33.6879 18.094C33.6873 17.796 33.5596 17.5402 33.3465 17.3699ZM12.8141 26.5711C12.09 26.5711 11.5361 26.0173 11.5361 25.2931C11.5361 24.5689 12.09 24.0151 12.8141 24.0151C13.5383 24.0151 14.0921 24.5689 14.0921 25.2931C14.0921 26.0173 13.5383 26.5711 12.8141 26.5711Z" fill="white"/>
</svg>
