<svg width="1281" height="721" viewBox="0 0 1281 721" fill="none" xmlns="http://www.w3.org/2000/svg">
<g clip-path="url(#clip0_101_9506)">
<rect width="1280" height="720" transform="translate(0.53125 0.982239)" fill="#F8FAFC"/>
<g filter="url(#filter0_f_101_9506)">
<path fill-rule="evenodd" clip-rule="evenodd" d="M361.433 -369.683C440.332 -376.295 479.617 -269.776 552.595 -240.018C616.038 -214.149 698.171 -251.816 752.349 -210.281C808.397 -167.312 842.235 -92.0605 837.14 -21.8743C832.193 46.2781 768.315 92.572 726.403 147.159C692.809 190.912 667.467 245.583 615.991 266.156C566.564 285.91 512.101 264.961 460.266 253.522C417.567 244.098 384.338 213.477 341.322 205.538C256.101 189.811 134.416 256.34 87.2124 184.675C44.1282 119.265 169.071 53.4889 191.638 -21.7109C210.241 -83.6999 177.502 -152.681 205.944 -210.969C238.953 -278.616 285.866 -363.351 361.433 -369.683Z" fill="#174A73"/>
</g>
<g filter="url(#filter1_f_101_9506)">
<path fill-rule="evenodd" clip-rule="evenodd" d="M530.823 603.154C594.998 601.072 638.14 498.481 700.483 521.338C762.528 544.086 754.066 657.425 805.585 703.89C879.798 770.823 1007.64 749.498 1055.34 841.391C1100.37 928.122 1067.88 1042.71 1023.26 1123.17C980.347 1200.53 902.867 1253.56 820.447 1264.91C746.896 1275.03 684.153 1181.6 609.39 1180.15C529.554 1178.59 465.964 1288.16 389.516 1256.52C317.005 1226.51 304.551 1115.85 268.139 1038.91C229.068 956.357 169.155 879.893 168.237 788.965C167.27 693.269 187.228 574.383 263.054 535.525C344.779 493.644 438.961 606.133 530.823 603.154Z" fill="#277BC0"/>
</g>
<g filter="url(#filter2_f_101_9506)">
<path fill-rule="evenodd" clip-rule="evenodd" d="M977.368 606.187C1031.74 598.745 1071.78 652.864 1125.21 662.794C1188.26 674.511 1260.77 636.432 1314.71 668.878C1370.91 702.686 1407.18 768.656 1407.78 832.773C1408.37 895.783 1345.91 941.567 1317.79 999.353C1288.62 1059.28 1303.56 1153.33 1239.53 1178.45C1171.67 1205.08 1110.68 1126.5 1041.23 1107.89C994.62 1095.4 948.036 1094.85 900.104 1087.49C813.847 1074.25 699.63 1112.75 646.823 1047.33C598.539 987.504 649.263 892.836 688.179 824.921C721.347 767.036 790.901 742.191 845.204 701.117C889.316 667.752 922.168 613.742 977.368 606.187Z" fill="#FFC133"/>
</g>
</g>
<defs>
<filter id="filter0_f_101_9506" x="-365.755" y="-813.978" width="1647.4" height="1532.28" filterUnits="userSpaceOnUse" color-interpolation-filters="sRGB">
<feFlood flood-opacity="0" result="BackgroundImageFix"/>
<feBlend mode="normal" in="SourceGraphic" in2="BackgroundImageFix" result="shape"/>
<feGaussianBlur stdDeviation="222" result="effect1_foregroundBlur_101_9506"/>
</filter>
<filter id="filter1_f_101_9506" x="-65.7959" y="284.018" width="1376.75" height="1215.66" filterUnits="userSpaceOnUse" color-interpolation-filters="sRGB">
<feFlood flood-opacity="0" result="BackgroundImageFix"/>
<feBlend mode="normal" in="SourceGraphic" in2="BackgroundImageFix" result="shape"/>
<feGaussianBlur stdDeviation="117" result="effect1_foregroundBlur_101_9506"/>
</filter>
<filter id="filter2_f_101_9506" x="383.093" y="361.487" width="1268.69" height="1066.42" filterUnits="userSpaceOnUse" color-interpolation-filters="sRGB">
<feFlood flood-opacity="0" result="BackgroundImageFix"/>
<feBlend mode="normal" in="SourceGraphic" in2="BackgroundImageFix" result="shape"/>
<feGaussianBlur stdDeviation="122" result="effect1_foregroundBlur_101_9506"/>
</filter>
<clipPath id="clip0_101_9506">
<rect width="1280" height="720" fill="white" transform="translate(0.53125 0.982239)"/>
</clipPath>
</defs>
</svg>
