<svg width="320" height="237" viewBox="0 0 320 237" fill="none" xmlns="http://www.w3.org/2000/svg">
<path d="M0.00585938 207.895H320.006V207.735H0.00585938V207.895Z" fill="#ECECEC"/>
<path d="M50.2754 213.266H71.4737V213.106H50.2754V213.266Z" fill="#ECECEC"/>
<path d="M85.3379 217.883H104.645V217.724H85.3379V217.883Z" fill="#ECECEC"/>
<path d="M36.3906 219.207H60.8711V219.047H36.3906V219.207Z" fill="#ECECEC"/>
<path d="M277.764 218.859H287.94V218.7H277.764V218.859Z" fill="#ECECEC"/>
<path d="M250.547 218.859H275.712V218.7H250.547V218.859Z" fill="#ECECEC"/>
<path d="M160.006 213.186H179.42V213.026H160.006V213.186Z" fill="#ECECEC"/>
<path d="M182.191 213.186H228.332V213.026H182.191V213.186Z" fill="#ECECEC"/>
<path d="M28.112 -1.66937C26.1858 -1.66937 24.619 -0.102005 24.619 1.82376V175.54C24.619 177.466 26.1858 179.033 28.112 179.033H151.695C153.621 179.033 155.188 177.466 155.188 175.54V1.82376C155.188 -0.102005 153.621 -1.66937 151.695 -1.66937H28.112ZM151.695 179.193H28.112C26.098 179.193 24.459 177.554 24.459 175.54V1.82376C24.459 -0.189682 26.098 -1.82936 28.112 -1.82936H151.695C153.709 -1.82936 155.348 -0.189682 155.348 1.82376V175.54C155.348 177.554 153.709 179.193 151.695 179.193Z" fill="#ECECEC"/>
<path d="M166.541 -1.66937C164.615 -1.66937 163.049 -0.102005 163.049 1.82376V175.54C163.049 177.466 164.615 179.033 166.541 179.033H290.124C292.05 179.033 293.618 177.466 293.618 175.54V1.82376C293.618 -0.102005 292.05 -1.66937 290.124 -1.66937H166.541ZM290.124 179.193H166.541C164.528 179.193 162.889 177.554 162.889 175.54V1.82376C162.889 -0.189682 164.528 -1.82936 166.541 -1.82936H290.124C292.139 -1.82936 293.778 -0.189682 293.778 1.82376V175.54C293.778 177.554 292.139 179.193 290.124 179.193Z" fill="#ECECEC"/>
<path d="M169.363 207.734H187.774V133.374H169.363V207.734Z" fill="#E7E7E7"/>
<path d="M180.121 207.734H187.774V194.908H172.096L180.121 207.734Z" fill="#F5F5F5"/>
<path d="M36.3906 207.734H54.8009V133.374H36.3906V207.734Z" fill="#E7E7E7"/>
<path d="M48.123 203.32H187.774V133.375H48.123V203.32Z" fill="#F5F5F5"/>
<path d="M54.3802 154.208H181.516V140.191H54.3802V154.208ZM182.156 154.848H53.7402V139.551H182.156V154.848Z" fill="#ECECEC"/>
<path d="M55.7768 207.734H48.123V194.908H63.8018L55.7768 207.734Z" fill="#F5F5F5"/>
<path d="M54.3802 196.508H181.516V161.34H54.3802V196.508ZM182.156 197.148H53.7402V160.7H182.156V197.148Z" fill="#ECECEC"/>
<path d="M115.52 114.031H261.04V13.2569H115.52V114.031Z" fill="#E7E7E7"/>
<path d="M118.195 114.031H263.716V13.2569H118.195V114.031Z" fill="#F5F5F5"/>
<path d="M122.996 108.943H258.915V18.3437H122.996V108.943Z" fill="white"/>
<path d="M256.893 108.943H258.914V18.3437H256.893V108.943Z" fill="#E7E7E7"/>
<path d="M120.18 29.875H261.728V26.46H120.18V29.875Z" fill="#F5F5F5"/>
<mask id="mask0_819_155902" style="mask-type:luminance" maskUnits="userSpaceOnUse" x="153" y="9" width="109" height="113">
<path d="M153.387 121.82H261.344V9.89137H153.387V121.82Z" fill="white"/>
</mask>
<g mask="url(#mask0_819_155902)">
<mask id="mask1_819_155902" style="mask-type:luminance" maskUnits="userSpaceOnUse" x="153" y="9" width="109" height="113">
<path d="M153.387 121.816H261.344V9.88746H153.387V121.816Z" fill="white"/>
</mask>
<g mask="url(#mask1_819_155902)">
<g opacity="0.5">
<mask id="mask2_819_155902" style="mask-type:luminance" maskUnits="userSpaceOnUse" x="153" y="9" width="109" height="113">
<path d="M153.381 121.818H261.338V9.88941H153.381V121.818Z" fill="white"/>
</mask>
<g mask="url(#mask2_819_155902)">
<path d="M255.59 121.816H261.337V9.88744H255.59V121.816Z" fill="#F0F0F0"/>
<path d="M248.289 121.816H254.036V9.88744H248.289V121.816Z" fill="#F0F0F0"/>
<path d="M240.988 121.816H246.736V9.88744H240.988V121.816Z" fill="#F0F0F0"/>
<path d="M233.688 121.816H239.435V9.88744H233.688V121.816Z" fill="#F0F0F0"/>
<path d="M226.387 121.816H232.135V9.88744H226.387V121.816Z" fill="#F0F0F0"/>
<path d="M219.088 121.816H224.836V9.88744H219.088V121.816Z" fill="#F0F0F0"/>
<path d="M211.787 121.816H217.535V9.88744H211.787V121.816Z" fill="#F0F0F0"/>
<path d="M204.484 121.816H210.232V9.88744H204.484V121.816Z" fill="#F0F0F0"/>
<path d="M197.184 121.816H202.931V9.88744H197.184V121.816Z" fill="#F0F0F0"/>
<path d="M189.885 121.816H195.632V9.88744H189.885V121.816Z" fill="#F0F0F0"/>
<path d="M182.584 121.816H188.331V9.88744H182.584V121.816Z" fill="#F0F0F0"/>
<path d="M175.283 121.816H181.03V9.88744H175.283V121.816Z" fill="#F0F0F0"/>
<path d="M167.982 121.816H173.73V9.88744H167.982V121.816Z" fill="#F0F0F0"/>
<path d="M160.682 121.816H166.43V9.88744H160.682V121.816Z" fill="#F0F0F0"/>
<path d="M153.381 121.816H159.129V9.88744H153.381V121.816Z" fill="#F0F0F0"/>
</g>
</g>
</g>
</g>
<path d="M39.9082 101.994H82.0855V25.2934H39.9082V101.994Z" fill="#F0F0F0"/>
<path d="M42.6289 101.994H91.1429V25.2934H42.6289V101.994Z" fill="#F5F5F5"/>
<path d="M44.6074 100.172H89.1649V27.1127H44.6074V100.172Z" fill="white"/>
<path d="M56.4824 41.6538V85.632C56.4824 86.608 57.273 87.3984 58.249 87.3984H75.5238C76.4991 87.3984 77.2902 86.608 77.2902 85.632V41.6538C77.2902 40.6784 76.4991 39.8868 75.5238 39.8868H58.249C57.273 39.8868 56.4824 40.6784 56.4824 41.6538Z" fill="#F5F5F5"/>
<path d="M245.706 89.2659L254.333 110.529C254.085 172.027 256.863 175.572 256.889 186.15H235.111C234.328 134.675 241.959 146.248 245.706 89.2659Z" fill="#ECECEC"/>
<path d="M257.867 152.069C240.338 103.808 199.982 118.756 201.789 136.344C203.596 153.932 267.948 179.826 257.867 152.069Z" fill="#ECECEC"/>
<path d="M251.241 179.901C241.677 148.797 216.247 153.876 216.246 168.168C216.245 182.461 256.741 197.789 251.241 179.901Z" fill="#ECECEC"/>
<path d="M250.555 123.759C235.542 82.185 198.149 87.9047 201.16 105.446C204.172 122.986 259.189 147.669 250.555 123.759Z" fill="#ECECEC"/>
<path d="M250.66 105.11C252.052 76.7847 224.001 65.1265 225.944 82.0545C227.888 98.9818 249.86 121.402 250.66 105.11Z" fill="#ECECEC"/>
<path d="M248.566 134.113C254.489 99.2094 290.438 85.9326 286.42 105.689C282.404 125.446 245.159 154.186 248.566 134.113Z" fill="#ECECEC"/>
<path d="M245.54 114.381C238.559 77.7803 270.854 61.516 271.783 79.162C272.713 96.8081 249.555 135.431 245.54 114.381Z" fill="#ECECEC"/>
<path d="M242.738 155.725C257.006 120.453 287.561 129.206 284.478 145.257C281.394 161.309 234.532 176.011 242.738 155.725Z" fill="#ECECEC"/>
<path d="M249.779 180.354C249.461 157.597 270.116 151.717 270.361 164.899C270.606 178.08 249.962 193.441 249.779 180.354Z" fill="#ECECEC"/>
<path d="M243.47 207.895C232.115 207.895 222.535 199.989 220.205 189.303C219.589 186.476 218.887 183.669 217.78 180.993L217.602 180.563H269.338L269.159 180.993C268.053 183.669 267.351 186.476 266.734 189.303C264.404 199.989 254.824 207.895 243.47 207.895Z" fill="#E1E1E1"/>
<path d="M284.096 229.394C284.096 233.396 228.539 236.641 160.007 236.641C91.4743 236.641 35.918 233.396 35.918 229.394C35.918 225.391 91.4743 222.147 160.007 222.147C228.539 222.147 284.096 225.391 284.096 229.394Z" fill="#F5F5F5"/>
<path d="M112.871 99.9258L112.467 99.4298C114.115 98.0896 115.883 96.8602 117.719 95.7748L118.045 96.3258C116.236 97.3952 114.495 98.6067 112.871 99.9258Z" fill="#82D2DA"/>
<path d="M99.7299 118.217L99.1309 117.993C101.301 112.189 104.77 106.8 109.163 102.411L109.615 102.863C105.286 107.189 101.868 112.498 99.7299 118.217Z" fill="#82D2DA"/>
<path d="M223.721 146.424C223.564 127.726 208.365 112.616 189.63 112.616C185.116 112.616 180.811 113.501 176.868 115.094C170.172 101.397 156.106 91.9596 139.832 91.9596C120.152 91.9596 103.705 105.761 99.6157 124.211C81.1067 125.401 66.4609 140.782 66.4609 159.591C66.4609 179.178 82.3382 195.055 101.924 195.055H214.77C228.653 195.055 239.908 183.8 239.908 169.915C239.908 159.186 233.184 150.032 223.721 146.424Z" fill="#82D2DA"/>
<path d="M199.538 156.738H109.234C107.709 156.738 106.461 155.49 106.461 153.965C106.461 152.439 107.709 151.191 109.234 151.191H199.538C201.063 151.191 202.311 152.439 202.311 153.965C202.311 155.49 201.063 156.738 199.538 156.738Z" fill="#005B64"/>
<path d="M202.117 102.94L190.144 153.965H118.707L138.688 68.8096L188.155 80.416" fill="#82D2DA"/>
<mask id="mask3_819_155902" style="mask-type:luminance" maskUnits="userSpaceOnUse" x="118" y="68" width="85" height="86">
<path d="M118.709 153.965H202.119V68.8096H118.709V153.965Z" fill="white"/>
</mask>
<g mask="url(#mask3_819_155902)">
<mask id="mask4_819_155902" style="mask-type:luminance" maskUnits="userSpaceOnUse" x="118" y="68" width="85" height="86">
<path d="M118.719 153.965H202.129V68.8096H118.719V153.965Z" fill="white"/>
</mask>
<g mask="url(#mask4_819_155902)">
<g opacity="0.800003">
<mask id="mask5_819_155902" style="mask-type:luminance" maskUnits="userSpaceOnUse" x="118" y="68" width="85" height="86">
<path d="M118.719 153.965H202.129V68.8096H118.719V153.965Z" fill="white"/>
</mask>
<g mask="url(#mask5_819_155902)">
<path d="M202.129 102.94L190.156 153.965H118.719L138.7 68.8096L188.166 80.416" fill="#FAFAFA"/>
</g>
</g>
</g>
</g>
<path d="M192.798 112.425L138.537 99.6931C137.758 99.5107 137.272 98.7248 137.454 97.9472C137.637 97.1689 138.423 96.6819 139.2 96.8649L193.461 109.596C194.239 109.778 194.727 110.564 194.544 111.342C194.361 112.12 193.575 112.607 192.798 112.425Z" fill="#005B64"/>
<path d="M190.725 121.257L136.464 108.525C135.687 108.342 135.2 107.557 135.382 106.779C135.564 106.001 136.35 105.513 137.128 105.696L191.389 118.428C192.167 118.61 192.654 119.396 192.472 120.174C192.289 120.951 191.504 121.439 190.725 121.257Z" fill="#005B64"/>
<path d="M188.652 130.087L134.391 117.355C133.612 117.173 133.125 116.388 133.308 115.609C133.491 114.831 134.277 114.344 135.054 114.527L189.315 127.258C190.093 127.44 190.581 128.227 190.398 129.004C190.215 129.782 189.429 130.269 188.652 130.087Z" fill="#005B64"/>
<path d="M186.579 138.919L132.318 126.187C131.54 126.005 131.053 125.219 131.236 124.441C131.418 123.663 132.204 123.176 132.981 123.359L187.243 136.09C188.021 136.272 188.508 137.058 188.325 137.837C188.142 138.614 187.357 139.101 186.579 138.919Z" fill="#005B64"/>
<path d="M162.939 142.688L130.249 135.018C129.472 134.835 128.985 134.051 129.167 133.272C129.35 132.494 130.136 132.007 130.914 132.19L163.603 139.859C164.381 140.042 164.868 140.829 164.686 141.606H164.685C164.503 142.383 163.717 142.871 162.939 142.688Z" fill="#005B64"/>
<path fill-rule="evenodd" clip-rule="evenodd" d="M192.488 75.2617H203.675C208.049 75.2617 210.978 78.3327 210.978 82.9004V93.4437C210.978 97.9972 208.049 101.068 203.675 101.068H192.488C188.114 101.068 185.172 97.9972 185.172 93.4437V82.9004C185.172 78.3327 188.114 75.2617 192.488 75.2617ZM197.339 92.0219L203.468 85.8929C203.907 85.4542 203.907 84.7445 203.468 84.2929C203.029 83.8542 202.307 83.8542 201.868 84.2929L196.539 89.6219L194.281 87.3638C193.842 86.9251 193.12 86.9251 192.681 87.3638C192.242 87.8025 192.242 88.5122 192.681 88.9638L195.752 92.0219C195.971 92.2413 196.255 92.3445 196.539 92.3445C196.836 92.3445 197.12 92.2413 197.339 92.0219Z" fill="#005B64"/>
</svg>
