<svg width="64" height="65" viewBox="0 0 64 65" fill="none" xmlns="http://www.w3.org/2000/svg">
<path d="M57.5388 13.2463V22.0448H6.46191V13.2463C6.46191 11.9311 7.20236 10.7885 8.29017 10.2149C8.7678 9.96119 9.31171 9.81836 9.88989 9.81836H54.1108C55.426 9.81836 56.5687 10.5588 57.1423 11.6466C57.3959 12.1242 57.5388 12.6682 57.5388 13.2463Z" fill="#FD646F"/>
<path d="M20.1734 9.81836V16.2172C20.1734 16.848 19.6615 17.3599 19.0307 17.3599H13.7745C13.1437 17.3599 12.6318 16.848 12.6318 16.2172V9.81836H20.1734Z" fill="#FC4755"/>
<path d="M49.5406 9.81836V16.2172C49.5406 16.848 49.0287 17.3599 48.3979 17.3599H43.1417C42.5109 17.3599 41.999 16.848 41.999 16.2172V9.81836H49.5406Z" fill="#FC4755"/>
<path d="M8.29017 10.2158V22.0458H6.46191V13.2473C6.46191 11.9321 7.20236 10.7894 8.29017 10.2158Z" fill="#FC4755"/>
<path d="M15.8311 28.8809H21.7101C22.0256 28.8809 22.2814 29.1367 22.2814 29.4522V35.3312C22.2814 35.6467 22.0256 35.9025 21.7101 35.9025H15.8311C15.5156 35.9025 15.2598 35.6467 15.2598 35.3312V29.4522C15.2598 29.1367 15.5156 28.8809 15.8311 28.8809Z" fill="#E6E6E6"/>
<path d="M15.8311 37.6162H21.7101C22.0256 37.6162 22.2814 37.8721 22.2814 38.1875V44.0677C22.2814 44.3832 22.0256 44.639 21.7101 44.639H15.8311C15.5156 44.639 15.2598 44.3832 15.2598 44.0677V38.1875C15.2598 37.8721 15.5156 37.6162 15.8311 37.6162Z" fill="#E6E6E6"/>
<path d="M15.8311 46.3535H21.7101C22.0256 46.3535 22.2814 46.6094 22.2814 46.9248V52.8038C22.2814 53.1193 22.0256 53.3752 21.7101 53.3752H15.8311C15.5156 53.3752 15.2598 53.1193 15.2598 52.8038V46.9248C15.2598 46.6094 15.5156 46.3535 15.8311 46.3535Z" fill="#E6E6E6"/>
<path d="M24.5664 28.8809H30.5711C30.8866 28.8809 31.1424 29.1367 31.1424 29.4522V35.3312C31.1424 35.6467 30.8866 35.9025 30.5711 35.9025H24.5664C24.251 35.9025 23.9951 35.6467 23.9951 35.3312V29.4522C23.9951 29.1367 24.251 28.8809 24.5664 28.8809Z" fill="#E6E6E6"/>
<path d="M24.5664 37.6162H30.5711C30.8866 37.6162 31.1424 37.8721 31.1424 38.1875V44.0677C31.1424 44.3832 30.8866 44.639 30.5711 44.639H24.5664C24.251 44.639 23.9951 44.3832 23.9951 44.0677V38.1875C23.9951 37.8721 24.251 37.6162 24.5664 37.6162Z" fill="#E6E6E6"/>
<path d="M24.5664 46.3535H30.5711C30.8866 46.3535 31.1424 46.6094 31.1424 46.9248V52.8038C31.1424 53.1193 30.8866 53.3752 30.5711 53.3752H24.5664C24.251 53.3752 23.9951 53.1193 23.9951 52.8038V46.9248C23.9951 46.6094 24.251 46.3535 24.5664 46.3535Z" fill="#E6E6E6"/>
<path d="M33.4278 28.8809H39.4324C39.7479 28.8809 40.0038 29.1367 40.0038 29.4522V35.3312C40.0038 35.6467 39.7479 35.9025 39.4324 35.9025H33.4278C33.1123 35.9025 32.8564 35.6467 32.8564 35.3312V29.4522C32.8564 29.1367 33.1123 28.8809 33.4278 28.8809Z" fill="#E6E6E6"/>
<path d="M33.4278 37.6162H39.4324C39.7479 37.6162 40.0038 37.8721 40.0038 38.1875V44.0677C40.0038 44.3832 39.7479 44.639 39.4324 44.639H33.4278C33.1123 44.639 32.8564 44.3832 32.8564 44.0677V38.1875C32.8564 37.8721 33.1123 37.6162 33.4278 37.6162Z" fill="#E6E6E6"/>
<path d="M33.4278 46.3535H39.4324C39.7479 46.3535 40.0038 46.6094 40.0038 46.9248V52.8038C40.0038 53.1193 39.7479 53.3752 39.4324 53.3752H33.4278C33.1123 53.3752 32.8564 53.1193 32.8564 52.8038V46.9248C32.8564 46.6094 33.1123 46.3535 33.4278 46.3535Z" fill="#E6E6E6"/>
<path d="M48.7394 29.4522V35.3312C48.7394 35.6467 48.4836 35.9025 48.1681 35.9025H42.2891C41.9736 35.9025 41.7178 35.6467 41.7178 35.3312V29.4522C41.7178 29.1367 41.9736 28.8809 42.2891 28.8809H48.1681C48.4836 28.8809 48.7394 29.1367 48.7394 29.4522Z" fill="#E6E6E6"/>
<path d="M42.2891 37.6162H48.1681C48.4836 37.6162 48.7394 37.8721 48.7394 38.1875V44.0677C48.7394 44.3832 48.4836 44.639 48.1681 44.639H42.2891C41.9736 44.639 41.7178 44.3832 41.7178 44.0677V38.1875C41.7178 37.8721 41.9736 37.6162 42.2891 37.6162Z" fill="#E6E6E6"/>
<path d="M42.2891 46.3535H48.1681C48.4836 46.3535 48.7394 46.6094 48.7394 46.9248V52.8038C48.7394 53.1193 48.4836 53.3752 48.1681 53.3752H42.2891C41.9736 53.3752 41.7178 53.1193 41.7178 52.8038V46.9248C41.7178 46.6094 41.9736 46.3535 42.2891 46.3535Z" fill="#E6E6E6"/>
<path d="M6.46191 21.2451V57.4674C6.46191 59.3608 7.99651 60.8954 9.88989 60.8954H54.1108C56.0042 60.8954 57.5388 59.3608 57.5388 57.4674V21.2451H6.46191Z" fill="#F5F5F5"/>
<path d="M20.1742 5.24813V14.3894C20.1742 15.0201 19.6623 15.5321 19.0316 15.5321H15.6036C14.9728 15.5321 14.4609 15.0201 14.4609 14.3894V5.24813C14.4609 4.61738 14.9728 4.10547 15.6036 4.10547H19.0316C19.6623 4.10547 20.1742 4.61738 20.1742 5.24813Z" fill="#50758D"/>
<path d="M15.2607 28.8809H22.2824V35.9025H15.2607V28.8809Z" fill="#FFAC5C"/>
<path d="M41.7188 28.8809H48.7404V35.9025H41.7188V28.8809Z" fill="#FFAC5C"/>
<path d="M23.9961 28.8809H31.1434V35.9025H23.9961V28.8809Z" fill="#FFAC5C"/>
<path d="M15.2607 37.6162H22.2824V44.639H15.2607V37.6162Z" fill="#FFAC5C"/>
<path d="M41.7188 37.6162H48.7404V44.639H41.7188V37.6162Z" fill="#E6E6E6"/>
<path d="M23.9961 37.6162H31.1434V44.639H23.9961V37.6162Z" fill="#FFAC5C"/>
<path d="M15.2607 46.3535H22.2824V53.3752H15.2607V46.3535Z" fill="#E6E6E6"/>
<path d="M41.7188 46.3535H48.7404V53.3752H41.7188V46.3535Z" fill="#E6E6E6"/>
<path d="M23.9961 46.3535H31.1434V53.3752H23.9961V46.3535Z" fill="#E6E6E6"/>
<path d="M32.8574 28.8809H40.0048V35.9025H32.8574V28.8809Z" fill="#FFAC5C"/>
<path d="M32.8574 37.6162H40.0048V44.639H32.8574V37.6162Z" fill="#FFAC5C"/>
<path d="M32.8574 46.3535H40.0048V53.3752H32.8574V46.3535Z" fill="#E6E6E6"/>
<path d="M49.5404 5.24813V14.3894C49.5404 15.0201 49.0285 15.5321 48.3978 15.5321H44.9698C44.3391 15.5321 43.8271 15.0201 43.8271 14.3894V5.24813C43.8271 4.61738 44.3391 4.10547 44.9698 4.10547H48.3978C49.0285 4.10547 49.5404 4.61738 49.5404 5.24813Z" fill="#50758D"/>
<path d="M6.46191 21.2451V57.4674C6.46191 59.3608 7.99651 60.8954 9.88989 60.8954H11.156C9.55738 60.6051 8.3473 59.2065 8.3473 57.5245V23.6698C8.47642 23.3213 8.81122 23.0734 9.2043 23.0734H57.5388V21.3023V21.2451H6.46191Z" fill="#E6E6E6"/>
<path d="M17.4319 15.5321H15.6036C14.9728 15.5321 14.4609 15.0201 14.4609 14.3894V5.24813C14.4609 4.61738 14.9728 4.10547 15.6036 4.10547H16.2892V14.3894C16.2892 15.0201 16.8011 15.5321 17.4319 15.5321Z" fill="#2B597F"/>
<path d="M46.7981 15.5321H44.9698C44.3391 15.5321 43.8271 15.0201 43.8271 14.3894V5.24813C43.8271 4.61738 44.3391 4.10547 44.9698 4.10547H45.6554V14.3894C45.6554 15.0201 46.1673 15.5321 46.7981 15.5321Z" fill="#2B597F"/>
</svg>
