<svg width="750" height="720" viewBox="0 0 750 720" fill="none" xmlns="http://www.w3.org/2000/svg">
<path fill-rule="evenodd" clip-rule="evenodd" d="M-376.275 -590.21C-378.057 -589.181 -380.987 -588.073 -382.786 -587.747C-384.585 -587.422 -392.212 -585.275 -399.736 -582.976C-407.259 -580.675 -417.549 -577.597 -422.603 -576.132C-443.365 -570.117 -454.582 -566.763 -467.449 -562.725C-474.907 -560.384 -484.484 -557.415 -488.731 -556.127C-492.979 -554.839 -501.867 -552.04 -508.483 -549.907C-515.1 -547.773 -525.505 -544.492 -531.606 -542.616C-537.708 -540.74 -548.333 -537.409 -555.217 -535.213C-562.102 -533.017 -573.17 -529.606 -579.813 -527.632C-586.455 -525.658 -597.964 -522.158 -605.389 -519.855C-612.813 -517.552 -621.55 -515.218 -624.803 -514.67C-628.057 -514.122 -634.162 -512.423 -638.37 -510.896C-642.578 -509.37 -654.609 -506.274 -665.106 -504.017C-675.603 -501.762 -686.567 -499.11 -689.471 -498.126C-692.375 -497.142 -735.095 -489.709 -784.404 -481.609C-867.147 -468.017 -875.071 -466.566 -887.199 -462.795C-894.427 -460.547 -904.111 -457.584 -908.721 -456.211C-927.406 -450.645 -956.417 -436.627 -979.916 -421.811C-990.521 -415.125 -1012.77 -396.094 -1025.57 -382.757C-1036.96 -370.884 -1057.35 -344.315 -1064.92 -331.482C-1075.88 -312.891 -1088.04 -284.551 -1092.07 -268.24C-1100.99 -232.12 -1103.64 -196.583 -1100.18 -159.497C-1099.49 -152.09 -1098.87 -141.48 -1098.8 -135.92C-1098.71 -128.015 -1097.08 -115.978 -1091.32 -80.712C-1085.7 -46.3097 -1083.89 -33.0339 -1083.68 -24.7356C-1083.53 -18.7532 -1082.77 -7.1259 -1081.99 1.10221C-1077.85 44.7159 -1081.5 84.7041 -1092.97 121.347C-1099.68 142.8 -1116.18 181.61 -1132.39 214.125C-1159.68 268.845 -1171.97 304.9 -1175.46 340.486C-1175.9 345.015 -1176.74 349.808 -1177.33 351.138C-1178.18 353.065 -1177.64 358.149 -1174.69 376.223C-1171.33 396.748 -1170.76 399.169 -1168.56 401.844C-1167.23 403.469 -1164.31 408.906 -1162.07 413.929C-1156.42 426.609 -1146.65 442.759 -1136.18 456.722C-1127.68 468.041 -1102.06 498.71 -1094.18 506.979C-1085.92 515.644 -1068.01 538.858 -1063.9 546.21C-1056.02 560.322 -1047.36 582.588 -1035.07 620.377C-1024.16 653.882 -1021.31 662.234 -1016.45 675.029C-998.57 722.066 -978.922 757.482 -955.314 785.229C-946.778 795.26 -941.852 800.08 -927.176 812.756C-902.371 834.182 -864.457 850.803 -826.106 857.064C-807.197 860.152 -781.527 861.639 -766.503 860.518C-760.409 860.062 -750.271 859.615 -743.974 859.523C-734.197 859.381 -727.497 858.443 -698.086 853.099C-662.568 846.646 -649.975 845.253 -640.373 846.714C-611.59 851.089 -584.618 870.421 -554.248 908.435C-519.046 952.499 -494.491 972.157 -452.6 989.813C-433.242 997.973 -413.131 1002.15 -384.705 1003.91C-371.278 1004.74 -368.899 1004.59 -346.905 1001.4C-324.709 998.191 -322.738 997.749 -310.579 993.266C-287.853 984.884 -264.373 971.838 -250.844 960.074C-232.893 944.466 -225.402 935.212 -213.104 913.447C-202.636 894.921 -196.657 886.804 -187.271 878.374C-168.137 861.191 -145.819 851.308 -114.652 846.218C-85.0392 841.381 -47.9715 842.559 1.95457 849.925C47.0034 856.57 105.402 859.113 141.675 856.008C148.581 855.417 156.969 854.938 160.313 854.943C168.082 854.957 224.733 845.725 232.351 843.205C235.523 842.154 242.924 840.023 248.799 838.467C268.992 833.119 292.007 824.234 308.837 815.291C318.968 809.908 339.714 795.19 347.485 787.873C356.806 779.098 366.28 768.903 379.597 753.319C412.076 715.312 423.452 703.257 435.477 694.1C445.934 686.137 453.639 681.868 465.788 677.308C474.605 673.998 477.65 673.301 486.607 672.541C503.5 671.108 515.882 668.832 531.358 664.314C563.102 655.048 578.71 647.77 602.255 631.254C622.301 617.193 637.151 603.301 650.267 586.338C673.432 556.382 689.272 521.405 694.535 488.595C698.009 466.935 698.188 458.551 695.528 441.843C692.808 424.748 690.706 419.11 680.76 402.224C666.995 378.851 659.985 364.254 653.25 344.937C648.254 330.61 642.473 295.199 643.102 282.788C644.41 257.025 651.537 230.075 664.799 200.747C674.323 179.684 678.033 172.515 693.838 144.618C731.79 77.6303 744.444 44.8712 747.799 4.90847C748.462 -2.97737 749.37 -9.93921 749.819 -10.5636C750.889 -12.0511 745.173 -47.1371 743.686 -48.2058C743.074 -48.6456 740.756 -53.1192 738.533 -58.1471C727.463 -83.184 712.802 -99.4734 667.005 -137.615C649.47 -152.219 642.496 -158.618 632.731 -169.065C602.601 -201.294 582.335 -243.23 566.859 -305.361C565.193 -312.052 562.568 -322.106 561.026 -327.703C559.484 -333.3 555.424 -352.918 552.004 -371.299C547.738 -394.226 544.811 -407.581 542.678 -413.833C540.97 -418.846 539.077 -425.946 538.474 -429.613C536.346 -442.549 523.015 -482.396 515.455 -498.415C505.033 -520.499 488.357 -545.041 473.931 -559.525C438.646 -594.951 390.38 -613.332 327.169 -615.417C296.568 -616.425 270.751 -615.271 240.261 -611.53C228.517 -610.088 214.244 -608.865 208.546 -608.809C202.01 -608.747 191.164 -607.59 179.172 -605.677C168.714 -604.008 157.652 -602.636 154.589 -602.628C151.525 -602.62 144.054 -602.307 137.986 -601.932C91.2238 -599.04 47.4362 -600.932 -19.1411 -608.718C-47.3379 -612.015 -56.8215 -613.006 -95.4138 -616.689C-124.877 -619.5 -139.468 -620.297 -164.168 -620.441C-173.794 -620.497 -183.383 -620.95 -185.478 -621.449C-188.789 -622.237 -201.285 -620.378 -281.161 -607.219C-354.787 -595.088 -373.679 -591.709 -376.275 -590.21Z" fill="#FEFEFE"/>
</svg>
