<svg width="665" height="720" viewBox="0 0 665 720" fill="none" xmlns="http://www.w3.org/2000/svg">
<path fill-rule="evenodd" clip-rule="evenodd" d="M-461.76 -445.984C-463.542 -444.955 -466.472 -443.846 -468.271 -443.521C-470.069 -443.195 -477.697 -441.048 -485.22 -438.749C-492.743 -436.449 -503.034 -433.37 -508.088 -431.905C-528.849 -425.891 -540.066 -422.537 -552.933 -418.498C-560.392 -416.157 -569.969 -413.188 -574.216 -411.9C-578.463 -410.613 -587.351 -407.814 -593.968 -405.68C-600.584 -403.546 -610.989 -400.266 -617.091 -398.389C-623.192 -396.514 -633.817 -393.182 -640.702 -390.986C-647.587 -388.79 -658.654 -385.379 -665.297 -383.405C-671.939 -381.431 -683.449 -377.932 -690.873 -375.628C-698.298 -373.325 -707.034 -370.992 -710.288 -370.444C-713.542 -369.896 -719.646 -368.197 -723.854 -366.669C-728.063 -365.143 -740.094 -362.047 -750.591 -359.791C-761.087 -357.535 -772.051 -354.883 -774.955 -353.899C-777.859 -352.915 -820.58 -345.482 -869.889 -337.382C-952.631 -323.791 -960.556 -322.339 -972.683 -318.569C-979.911 -316.321 -989.595 -313.357 -994.205 -311.984C-1012.89 -306.418 -1041.9 -292.4 -1065.4 -277.584C-1076.01 -270.898 -1098.25 -251.867 -1111.05 -238.531C-1122.45 -226.657 -1142.84 -200.088 -1150.4 -187.256C-1161.36 -168.665 -1173.53 -140.324 -1177.56 -124.014C-1186.47 -87.8939 -1189.12 -52.3561 -1185.66 -15.2706C-1184.97 -7.86321 -1184.35 2.74656 -1184.29 8.30653C-1184.2 16.2119 -1182.57 28.2481 -1176.81 63.5146C-1171.19 97.9169 -1169.38 111.193 -1169.17 119.491C-1169.02 125.473 -1168.25 137.101 -1167.47 145.329C-1163.33 188.942 -1166.99 228.931 -1178.46 265.574C-1185.17 287.026 -1201.66 325.836 -1217.88 358.352C-1245.17 413.071 -1257.46 449.126 -1260.94 484.712C-1261.38 489.241 -1262.23 494.035 -1262.81 495.364C-1263.66 497.292 -1263.13 502.376 -1260.17 520.449C-1256.82 540.974 -1256.24 543.395 -1254.05 546.071C-1252.72 547.695 -1249.8 553.133 -1247.56 558.155C-1241.91 570.835 -1232.13 586.986 -1221.66 600.948C-1213.17 612.267 -1187.54 642.936 -1179.66 651.206C-1171.41 659.87 -1153.49 683.085 -1149.39 690.437C-1141.51 704.548 -1132.85 726.814 -1120.55 764.603C-1109.64 798.109 -1106.8 806.461 -1101.94 819.256C-1084.05 866.292 -1064.41 901.708 -1040.8 929.455C-1032.26 939.487 -1027.34 944.307 -1012.66 956.982C-987.855 978.409 -949.941 995.029 -911.59 1001.29C-892.681 1004.38 -867.011 1005.87 -851.988 1004.74C-845.893 1004.29 -835.755 1003.84 -829.459 1003.75C-819.681 1003.61 -812.981 1002.67 -783.571 997.325C-748.052 990.873 -735.459 989.48 -725.857 990.94C-697.075 995.316 -670.102 1014.65 -639.732 1052.66C-604.53 1096.73 -579.975 1116.38 -538.085 1134.04C-518.726 1142.2 -498.615 1146.37 -470.189 1148.14C-456.762 1148.97 -454.384 1148.81 -432.39 1145.63C-410.194 1142.42 -408.223 1141.98 -396.064 1137.49C-373.338 1129.11 -349.858 1116.06 -336.329 1104.3C-318.378 1088.69 -310.887 1079.44 -298.589 1057.67C-288.12 1039.15 -282.141 1031.03 -272.755 1022.6C-253.622 1005.42 -231.303 995.534 -200.136 990.444C-170.524 985.607 -133.456 986.786 -83.5298 994.151C-38.481 1000.8 19.9179 1003.34 56.1911 1000.24C63.097 999.643 71.4843 999.164 74.8284 999.17C82.5981 999.183 139.249 989.951 146.866 987.431C150.038 986.381 157.44 984.25 163.315 982.694C183.507 977.346 206.523 968.461 223.353 959.518C233.483 954.135 254.229 939.416 262 932.1C271.322 923.324 280.796 913.129 294.113 897.546C326.592 859.539 337.968 847.483 349.993 838.327C360.45 830.363 368.155 826.095 380.303 821.535C389.12 818.225 392.165 817.528 401.122 816.768C418.016 815.334 430.398 813.058 445.874 808.541C477.618 799.275 493.226 791.997 516.771 775.481C536.817 761.42 551.666 747.528 564.782 730.565C587.947 700.608 603.787 665.632 609.05 632.822C612.525 611.162 612.703 602.778 610.044 586.069C607.323 568.975 605.222 563.336 595.276 546.451C581.511 523.078 574.5 508.481 567.766 489.164C562.77 474.837 556.988 439.426 557.618 427.014C558.926 401.252 566.053 374.301 579.315 344.973C588.838 323.911 592.548 316.741 608.353 288.844C646.306 221.857 658.96 189.098 662.315 149.135C662.977 141.249 663.886 134.287 664.335 133.663C665.405 132.175 659.689 97.0894 658.202 96.0208C657.59 95.581 655.271 91.1074 653.048 86.0794C641.979 61.0425 627.317 44.7532 581.52 6.61126C563.986 -7.99208 557.012 -14.3919 547.246 -24.8383C517.117 -57.0676 496.85 -99.0034 481.375 -161.134C479.709 -167.825 477.084 -177.879 475.542 -183.476C474 -189.073 469.939 -208.691 466.52 -227.072C462.254 -250 459.326 -263.354 457.194 -269.606C455.485 -274.619 453.593 -281.72 452.99 -285.386C450.861 -298.322 437.53 -338.169 429.97 -354.188C419.549 -376.272 402.872 -400.815 388.446 -415.298C353.161 -450.724 304.896 -469.105 241.685 -471.19C211.084 -472.199 185.266 -471.045 154.776 -467.303C143.032 -465.862 128.76 -464.638 123.062 -464.583C116.526 -464.52 105.68 -463.363 93.6875 -461.45C83.2294 -459.781 72.1677 -458.41 69.1044 -458.401C66.0409 -458.394 58.5698 -458.08 52.5019 -457.705C5.73944 -454.813 -38.0482 -456.705 -104.625 -464.491C-132.822 -467.789 -142.306 -468.78 -180.898 -472.463C-210.362 -475.274 -224.952 -476.07 -249.652 -476.214C-259.279 -476.27 -268.868 -476.724 -270.962 -477.222C-274.273 -478.011 -286.769 -476.152 -366.645 -462.992C-440.271 -450.861 -459.163 -447.483 -461.76 -445.984Z" fill="black" fill-opacity="0.05"/>
</svg>
