<svg width="482" height="768" viewBox="0 0 482 768" fill="none" xmlns="http://www.w3.org/2000/svg">
<path fill-rule="evenodd" clip-rule="evenodd" d="M-696.933 -432.89C-698.604 -431.689 -701.409 -430.293 -703.166 -429.79C-704.924 -429.287 -712.299 -426.391 -719.556 -423.354C-726.813 -420.316 -736.745 -416.227 -741.628 -414.266C-761.687 -406.213 -772.514 -401.759 -784.915 -396.458C-792.103 -393.386 -801.336 -389.477 -805.434 -387.773C-809.532 -386.068 -818.097 -382.398 -824.468 -379.616C-830.839 -376.833 -840.866 -372.532 -846.75 -370.058C-852.634 -367.584 -862.874 -363.21 -869.506 -360.339C-876.138 -357.468 -886.811 -352.972 -893.224 -350.346C-899.636 -347.72 -910.74 -343.091 -917.898 -340.06C-925.056 -337.028 -933.517 -333.836 -936.699 -332.967C-939.882 -332.097 -945.788 -329.799 -949.823 -327.86C-953.858 -325.922 -965.521 -321.643 -975.74 -318.352C-985.96 -315.062 -996.606 -311.331 -999.397 -310.062C-1002.19 -308.794 -1043.96 -297.142 -1092.21 -284.17C-1173.19 -262.403 -1180.93 -260.17 -1192.62 -255.209C-1199.59 -252.253 -1208.93 -248.339 -1213.38 -246.513C-1231.42 -239.114 -1258.89 -222.275 -1280.79 -205.192C-1290.68 -197.483 -1310.92 -176.33 -1322.33 -161.785C-1332.48 -148.835 -1350.13 -120.367 -1356.37 -106.845C-1365.43 -87.2549 -1374.71 -57.8427 -1377.09 -41.2122C-1382.37 -4.38393 -1381.46 31.241 -1374.33 67.7974C-1372.9 75.099 -1371.23 85.5945 -1370.61 91.1203C-1369.73 98.9773 -1366.91 110.791 -1357.67 145.308C-1348.65 178.98 -1345.52 192.009 -1344.49 200.245C-1343.74 206.183 -1341.82 217.676 -1340.23 225.786C-1331.76 268.77 -1331.41 308.923 -1339.18 346.527C-1343.72 368.541 -1356.26 408.801 -1369.16 442.771C-1390.86 499.937 -1399.5 537.036 -1399.42 572.792C-1399.41 577.343 -1399.77 582.197 -1400.22 583.578C-1400.88 585.581 -1399.84 590.586 -1395.1 608.275C-1389.71 628.364 -1388.9 630.715 -1386.45 633.159C-1384.96 634.643 -1381.52 639.763 -1378.79 644.537C-1371.9 656.591 -1360.57 671.687 -1348.76 684.537C-1339.18 694.954 -1310.62 722.917 -1301.96 730.36C-1292.88 738.159 -1272.74 759.474 -1267.93 766.38C-1258.68 779.636 -1247.85 800.929 -1231.84 837.305C-1217.66 869.558 -1213.99 877.584 -1207.88 889.831C-1185.4 934.852 -1162.32 968.135 -1136.07 993.392C-1126.57 1002.52 -1121.19 1006.83 -1105.33 1017.98C-1078.51 1036.83 -1039.13 1049.59 -1000.35 1052C-981.223 1053.19 -955.532 1052.11 -940.696 1049.5C-934.677 1048.44 -924.634 1046.98 -918.378 1046.26C-908.663 1045.15 -902.089 1043.55 -873.358 1035.3C-838.659 1025.34 -826.267 1022.7 -816.568 1023.2C-787.493 1024.68 -758.728 1041.23 -724.722 1076.03C-685.306 1116.37 -658.914 1133.48 -615.473 1146.88C-595.398 1153.07 -574.971 1155.22 -546.511 1154.14C-533.068 1153.63 -530.717 1153.24 -509.15 1147.88C-487.384 1142.47 -485.467 1141.84 -473.815 1136.16C-452.037 1125.56 -429.974 1110.24 -417.684 1097.19C-401.377 1079.87 -394.845 1069.91 -384.777 1047.03C-376.206 1027.56 -371.065 1018.88 -362.565 1009.56C-345.239 990.556 -324.016 978.499 -293.511 970.329C-264.528 962.566 -227.527 960.046 -177.116 962.401C-131.629 964.526 -73.2672 961.238 -37.4837 954.535C-30.6712 953.258 -22.3732 951.946 -19.0452 951.619C-11.3129 950.858 44.136 936.028 51.465 932.762C54.5163 931.401 61.669 928.543 67.3598 926.409C86.9189 919.076 108.935 907.943 124.79 897.367C134.334 891.002 153.51 874.29 160.514 866.236C168.915 856.575 177.326 845.487 189.024 828.654C217.555 787.601 227.674 774.472 238.727 764.163C248.338 755.198 255.58 750.183 267.214 744.435C275.657 740.264 278.617 739.266 287.454 737.618C304.121 734.509 316.214 731.011 331.164 724.973C361.826 712.591 376.632 703.795 398.414 685.015C416.96 669.027 430.352 653.725 441.712 635.54C461.778 603.424 474.055 567.044 476.023 533.873C477.322 511.974 476.665 503.614 472.354 487.254C467.944 470.515 465.291 465.114 453.712 449.303C437.687 427.418 429.258 413.592 420.632 395.043C414.234 381.284 404.953 346.626 404.343 334.213C403.078 308.448 407.485 280.922 417.759 250.419C425.137 228.512 428.114 221.008 441.061 191.676C472.152 121.241 481.479 87.3841 480.837 47.2859C480.71 39.3733 480.921 32.3555 481.305 31.6896C482.222 30.1028 473.038 -4.23917 471.453 -5.15438C470.8 -5.53109 468.047 -9.7514 465.334 -14.5329C451.826 -38.3425 435.614 -53.0902 386.246 -86.48C367.343 -99.2638 359.767 -104.937 349.009 -114.359C315.819 -143.426 291.475 -183.134 269.887 -243.414C267.562 -249.906 263.949 -259.648 261.857 -265.064C259.765 -270.48 253.771 -289.596 248.537 -307.545C242.008 -329.933 237.765 -342.929 235.02 -348.938C232.82 -353.756 230.23 -360.632 229.265 -364.22C225.858 -376.88 208.624 -415.201 199.506 -430.387C186.936 -451.323 167.898 -474.082 152.1 -487.056C113.462 -518.791 63.605 -532.272 0.500688 -528.049C-30.0481 -526.005 -55.6226 -522.284 -85.588 -515.524C-97.1302 -512.92 -111.21 -510.28 -116.874 -509.658C-123.371 -508.944 -134.048 -506.713 -145.79 -503.614C-156.03 -500.911 -166.9 -498.445 -169.947 -498.131C-172.994 -497.819 -180.397 -496.762 -186.398 -495.785C-232.639 -488.249 -276.398 -485.769 -343.419 -486.883C-371.804 -487.356 -381.339 -487.397 -420.107 -487.217C-449.704 -487.079 -464.301 -486.418 -488.892 -484.1C-498.476 -483.197 -508.063 -482.693 -510.197 -482.98C-513.57 -483.435 -525.818 -480.341 -603.986 -459.289C-676.038 -439.883 -694.499 -434.64 -696.933 -432.89Z" fill="black" fill-opacity="0.05"/>
</svg>
