<svg width="25" height="24" viewBox="0 0 25 24" fill="none" xmlns="http://www.w3.org/2000/svg">
<path d="M3.28961 19.6799H6.64961V11.5199L1.84961 7.91992V18.2399C1.84961 19.0367 2.49521 19.6799 3.28961 19.6799Z" fill="#4285F4"/>
<path d="M18.1699 19.6799H21.5299C22.3267 19.6799 22.9699 19.0343 22.9699 18.2399V7.91992L18.1699 11.5199" fill="#34A853"/>
<path d="M18.1699 5.28002V11.52L22.9699 7.92002V6.00002C22.9699 4.21922 20.9371 3.20402 19.5139 4.27202" fill="#FBBC04"/>
<path d="M6.65039 11.5193V5.2793L12.4104 9.5993L18.1704 5.2793V11.5193L12.4104 15.8393" fill="#EA4335"/>
<path d="M1.84961 6.00002V7.92002L6.64961 11.52V5.28002L5.30561 4.27202C3.88001 3.20402 1.84961 4.21922 1.84961 6.00002Z" fill="#C5221F"/>
</svg>
