<svg width="383" height="125" viewBox="0 0 383 125" fill="none" xmlns="http://www.w3.org/2000/svg">
<path d="M114.963 29.2168H66.9785V77.2013H114.963V29.2168Z" fill="#EA5E20"/>
<path d="M162.947 29.2168H114.963V77.2013H162.947V29.2168Z" fill="#F59D0E"/>
<path d="M210.932 29.2168H162.947V77.2013H210.932V29.2168Z" fill="#78B833"/>
<path d="M258.916 29.2168H210.932V77.2013H258.916V29.2168Z" fill="#0089CC"/>
<path d="M306.9 29.2168H258.916V77.2013H306.9V29.2168Z" fill="#3D366A"/>
<path d="M306.9 29.2168H353.315C354.18 29.2168 354.885 29.9267 354.885 30.7863V75.6262C354.885 76.4914 354.175 77.1957 353.315 77.1957H306.9V29.2168Z" fill="#843D8D"/>
<path d="M66.9789 29.2168H20.5695C19.7043 29.2168 19 29.9267 19 30.7863V75.6262C19 76.4914 19.7099 77.1957 20.5695 77.1957H66.9844V29.2168H66.9789Z" fill="#D42427"/>
<path d="M358.89 29.3554C355.717 29.3554 353.133 26.7709 353.133 23.5986C353.133 20.4263 355.717 17.8418 358.89 17.8418C362.062 17.8418 364.646 20.4263 364.646 23.5986C364.646 26.7709 362.062 29.3554 358.89 29.3554ZM358.89 18.1191C355.867 18.1191 353.41 20.576 353.41 23.5986C353.41 26.6212 355.867 29.0781 358.89 29.0781C361.912 29.0781 364.369 26.6212 364.369 23.5986C364.369 20.576 361.912 18.1191 358.89 18.1191Z" fill="black"/>
<path d="M356.965 26.8318V20.8809H359.605C360.137 20.8809 360.542 20.9363 360.814 21.0417C361.091 21.1471 361.313 21.3356 361.474 21.6074C361.635 21.8791 361.723 22.1786 361.723 22.5059C361.723 22.9274 361.585 23.2823 361.313 23.5762C361.041 23.8702 360.62 24.0477 360.043 24.1308C360.254 24.2307 360.409 24.3305 360.52 24.4248C360.747 24.6355 360.969 24.9017 361.174 25.2179L362.211 26.8373H361.219L360.431 25.6006C360.198 25.2456 360.01 24.9683 359.86 24.7797C359.71 24.5912 359.577 24.4581 359.461 24.3804C359.344 24.3028 359.222 24.2529 359.1 24.2196C359.011 24.2029 358.867 24.1919 358.662 24.1919H357.747V26.8373H356.965V26.8318ZM357.752 23.5041H359.444C359.804 23.5041 360.087 23.4653 360.287 23.3932C360.492 23.3211 360.642 23.1991 360.747 23.0383C360.853 22.8774 360.908 22.6944 360.908 22.5059C360.908 22.223 360.808 21.9901 360.603 21.8126C360.398 21.6296 360.076 21.5408 359.632 21.5408H357.747V23.5041H357.752Z" fill="black"/>
<path d="M34.8942 38.9598L43.0987 62.224H43.4226L51.6271 38.9598H55.1357L44.9879 66.5962H41.5334L31.3857 38.9598H34.8942Z" fill="white"/>
<path d="M91.5682 38.9598V66.5962H88.2216V38.9598H91.5682Z" fill="white"/>
<path d="M129.116 66.5962V38.9598H138.778C140.703 38.9598 142.291 39.2927 143.542 39.9584C144.792 40.6151 145.723 41.5013 146.335 42.6168C146.947 43.7233 147.252 44.9513 147.252 46.3007C147.252 47.4882 147.041 48.4688 146.618 49.2425C146.204 50.0162 145.656 50.6279 144.972 51.0777C144.297 51.5275 143.564 51.8604 142.772 52.0763V52.3462C143.618 52.4002 144.468 52.697 145.323 53.2368C146.177 53.7766 146.893 54.5503 147.468 55.5578C148.044 56.5654 148.332 57.7979 148.332 59.2553C148.332 60.6407 148.017 61.8867 147.387 62.9932C146.758 64.0997 145.764 64.9769 144.405 65.6246C143.047 66.2723 141.279 66.5962 139.102 66.5962H129.116ZM132.463 63.6274H139.102C141.288 63.6274 142.84 63.2046 143.757 62.359C144.684 61.5043 145.147 60.4698 145.147 59.2553C145.147 58.3197 144.909 57.456 144.432 56.6644C143.955 55.8637 143.276 55.225 142.395 54.7482C141.513 54.2624 140.469 54.0195 139.264 54.0195H132.463V63.6274ZM132.463 51.1047H138.67C139.678 51.1047 140.586 50.9068 141.396 50.511C142.215 50.1151 142.862 49.5574 143.339 48.8377C143.825 48.118 144.068 47.2723 144.068 46.3007C144.068 45.0862 143.645 44.0562 142.799 43.2105C141.954 42.3559 140.613 41.9286 138.778 41.9286H132.463V51.1047Z" fill="white"/>
<path d="M195.133 47.5962C194.836 46.6876 194.445 45.8734 193.959 45.1537C193.482 44.425 192.911 43.8043 192.245 43.2915C191.589 42.7787 190.842 42.3874 190.005 42.1175C189.169 41.8476 188.251 41.7127 187.252 41.7127C185.615 41.7127 184.126 42.1355 182.786 42.9811C181.445 43.8268 180.379 45.0728 179.588 46.7191C178.796 48.3654 178.4 50.385 178.4 52.778C178.4 55.171 178.801 57.1907 179.601 58.837C180.402 60.4833 181.486 61.7292 182.853 62.5749C184.221 63.4205 185.759 63.8434 187.468 63.8434C189.052 63.8434 190.446 63.506 191.652 62.8313C192.866 62.1476 193.811 61.185 194.485 59.9435C195.169 58.693 195.511 57.2221 195.511 55.5309L196.537 55.7468H188.224V52.778H198.75V55.7468C198.75 58.0228 198.264 60.002 197.292 61.6843C196.33 63.3666 194.998 64.671 193.298 65.5976C191.607 66.5152 189.663 66.974 187.468 66.974C185.021 66.974 182.871 66.3983 181.018 65.2468C179.174 64.0952 177.734 62.4579 176.7 60.3348C175.674 58.2117 175.162 55.6928 175.162 52.778C175.162 50.5919 175.454 48.6263 176.039 46.881C176.632 45.1267 177.469 43.6334 178.549 42.4009C179.628 41.1684 180.906 40.2238 182.381 39.5671C183.856 38.9103 185.48 38.582 187.252 38.582C188.71 38.582 190.068 38.8024 191.328 39.2432C192.596 39.675 193.725 40.2913 194.715 41.0919C195.713 41.8836 196.546 42.8327 197.211 43.9392C197.877 45.0368 198.336 46.2558 198.588 47.5962H195.133Z" fill="white"/>
<path d="M224.331 38.9598H228.163L235.828 51.8604H236.152L243.817 38.9598H247.649L237.663 55.207V66.5962H234.317V55.207L224.331 38.9598Z" fill="white"/>
<path d="M294.942 52.778C294.942 55.6928 294.416 58.2117 293.363 60.3348C292.311 62.4579 290.867 64.0952 289.032 65.2468C287.196 66.3983 285.1 66.974 282.743 66.974C280.386 66.974 278.29 66.3983 276.455 65.2468C274.62 64.0952 273.176 62.4579 272.123 60.3348C271.071 58.2117 270.544 55.6928 270.544 52.778C270.544 49.8632 271.071 47.3443 272.123 45.2212C273.176 43.0981 274.62 41.4608 276.455 40.3093C278.29 39.1577 280.386 38.582 282.743 38.582C285.1 38.582 287.196 39.1577 289.032 40.3093C290.867 41.4608 292.311 43.0981 293.363 45.2212C294.416 47.3443 294.942 49.8632 294.942 52.778ZM291.703 52.778C291.703 50.385 291.303 48.3654 290.502 46.7191C289.711 45.0728 288.636 43.8268 287.277 42.9811C285.928 42.1355 284.417 41.7127 282.743 41.7127C281.07 41.7127 279.554 42.1355 278.196 42.9811C276.846 43.8268 275.771 45.0728 274.971 46.7191C274.179 48.3654 273.783 50.385 273.783 52.778C273.783 55.171 274.179 57.1907 274.971 58.837C275.771 60.4833 276.846 61.7292 278.196 62.5749C279.554 63.4205 281.07 63.8434 282.743 63.8434C284.417 63.8434 285.928 63.4205 287.277 62.5749C288.636 61.7292 289.711 60.4833 290.502 58.837C291.303 57.1907 291.703 55.171 291.703 52.778Z" fill="white"/>
<path d="M321.558 66.5962V38.9598H330.896C333.055 38.9598 334.827 39.3287 336.212 40.0664C337.598 40.7951 338.623 41.7981 339.289 43.0756C339.955 44.3531 340.288 45.8059 340.288 47.4343C340.288 49.0626 339.955 50.5065 339.289 51.7659C338.623 53.0254 337.602 54.015 336.226 54.7347C334.849 55.4454 333.091 55.8007 330.95 55.8007H323.393V52.778H330.842C332.317 52.778 333.504 52.5621 334.404 52.1303C335.313 51.6985 335.969 51.0867 336.374 50.2951C336.788 49.4944 336.995 48.5408 336.995 47.4343C336.995 46.3277 336.788 45.3606 336.374 44.533C335.96 43.7053 335.299 43.0666 334.391 42.6168C333.482 42.158 332.281 41.9286 330.788 41.9286H324.904V66.5962H321.558ZM334.566 54.1814L341.367 66.5962H337.481L330.788 54.1814H334.566Z" fill="white"/>
<path d="M57.373 98.7087C57.373 94.2497 61.4217 90.7002 66.3798 90.7002C68.4541 90.7002 70.4284 91.3435 71.9425 92.4306C72.5748 92.8521 72.6746 93.6729 72.2087 94.2275C71.7429 94.7599 70.8444 94.8708 70.2343 94.4271C69.1861 93.6951 67.844 93.2292 66.3798 93.2292C64.6217 93.2292 63.0855 93.8282 61.9874 94.8486C60.8393 95.8469 60.1572 97.2002 60.1572 98.7087C60.1572 100.173 60.8393 101.526 61.9874 102.524C63.0855 103.545 64.6217 104.144 66.3798 104.144C67.6 104.144 68.748 103.811 69.7241 103.301V100.262H66.2356C65.4814 100.262 64.8436 99.6848 64.8436 98.9971C64.8436 98.2872 65.4758 97.7548 66.2356 97.7548H71.0441C71.0662 97.7548 71.0662 97.7548 71.0662 97.7548C71.0884 97.7548 71.0884 97.7548 71.0884 97.7548C71.8704 97.7548 72.5027 98.2872 72.5027 98.9971V103.9C72.5027 104.055 72.4528 104.144 72.4306 104.277C72.4084 104.321 72.4084 104.343 72.3807 104.388V104.41C72.3086 104.61 72.1588 104.787 71.9148 104.942C70.3785 106.029 68.4485 106.673 66.3743 106.673C61.4217 106.673 57.373 103.146 57.373 98.7087Z" fill="#3D366A"/>
<path d="M88.9735 104.832C89.2175 105.475 88.8293 106.163 88.1194 106.385C88.0196 106.407 87.8255 106.451 87.5814 106.451C87.5814 106.451 87.5814 106.451 87.5593 106.451C87.3152 106.451 86.9492 106.407 86.6053 106.207C86.2892 106.03 86.0175 105.741 85.8233 105.431C85.4795 104.787 85.3131 103.989 85.3131 102.769C85.2909 102.347 85.1911 102.059 85.0192 101.815C84.875 101.571 84.581 101.349 84.2871 101.171C83.7769 100.861 83.1391 100.683 82.9228 100.639H80.0444V105.453C80.0444 106.118 79.4343 106.673 78.68 106.673C77.9258 106.673 77.3379 106.118 77.3379 105.453V92.3642C77.3379 91.6765 77.9258 91.144 78.68 91.144C78.68 91.144 78.68 91.144 78.7022 91.144H83.0448C85.9509 91.144 88.2692 93.2737 88.2692 95.9137C88.2692 97.3778 87.5371 98.6645 86.3669 99.5519C86.683 99.7737 86.9769 100.04 87.2209 100.373C87.709 101.016 88.0251 101.837 88.0251 102.769C88.0029 103.434 88.075 103.856 88.125 104.077C88.5132 104.188 88.8293 104.455 88.9735 104.832ZM85.5571 95.9192C85.5571 94.6325 84.4368 93.612 83.0448 93.612H80.0444V98.182H83.0448C84.4368 98.1764 85.5571 97.156 85.5571 95.9192Z" fill="#3D366A"/>
<path d="M106.3 93.0793C107.814 94.5434 108.762 96.4956 108.762 98.6919C108.762 100.888 107.808 102.863 106.3 104.304C104.858 105.746 102.711 106.678 100.465 106.678C98.1246 106.678 95.9728 105.746 94.4864 104.304C92.9724 102.863 92.0684 100.888 92.0684 98.6919C92.0684 96.4956 92.9724 94.5434 94.4864 93.0793C95.9728 91.6151 98.1246 90.7056 100.465 90.7056C102.711 90.7056 104.858 91.6151 106.3 93.0793ZM105.983 98.6863C105.983 97.1778 105.323 95.7802 104.325 94.8041C103.299 93.8058 101.935 93.229 100.471 93.229C98.9066 93.229 97.5423 93.8058 96.5163 94.8041C95.4903 95.7802 94.858 97.1778 94.858 98.6863C94.858 100.195 95.4903 101.592 96.5163 102.546C97.5423 103.545 98.9066 104.144 100.471 104.144C101.935 104.144 103.299 103.545 104.325 102.546C105.323 101.592 105.983 100.195 105.983 98.6863Z" fill="#3D366A"/>
<path d="M119.943 106.673C116.017 106.673 112.889 103.789 112.889 100.262V92.3642C112.889 91.6765 113.477 91.144 114.231 91.144C114.963 91.144 115.595 91.6765 115.595 92.3642V100.262C115.595 102.436 117.547 104.211 119.938 104.211C122.356 104.211 124.28 102.436 124.28 100.262V92.3642C124.28 91.6765 124.89 91.144 125.645 91.144C126.399 91.144 126.987 91.6765 126.987 92.3642V100.262C126.998 103.789 123.848 106.673 119.943 106.673Z" fill="#3D366A"/>
<path d="M137.652 100.639H134.652V105.453C134.652 106.118 134.042 106.673 133.287 106.673C132.555 106.673 131.945 106.118 131.945 105.453V92.3642C131.945 91.6765 132.555 91.144 133.287 91.144H133.31H137.652C140.558 91.144 142.899 93.2737 142.899 95.9137C142.899 98.5092 140.558 100.639 137.652 100.639ZM134.652 98.1764H137.652C139.066 98.1764 140.165 97.156 140.192 95.9137C140.17 94.627 139.072 93.6065 137.652 93.6065H134.652V98.1764Z" fill="#3D366A"/>
<path d="M167.04 93.0793C168.554 94.5434 169.502 96.4956 169.502 98.6919C169.502 100.888 168.548 102.863 167.04 104.304C165.598 105.746 163.451 106.678 161.205 106.678C158.865 106.678 156.713 105.746 155.227 104.304C153.713 102.863 152.809 100.888 152.809 98.6919C152.809 96.4956 153.713 94.5434 155.227 93.0793C156.713 91.6151 158.865 90.7056 161.205 90.7056C163.451 90.7056 165.598 91.6151 167.04 93.0793ZM166.724 98.6863C166.724 97.1778 166.064 95.7802 165.065 94.8041C164.039 93.8058 162.675 93.229 161.211 93.229C159.647 93.229 158.283 93.8058 157.257 94.8041C156.23 95.7802 155.598 97.1778 155.598 98.6863C155.598 100.195 156.23 101.592 157.257 102.546C158.283 103.545 159.647 104.144 161.211 104.144C162.675 104.144 164.039 103.545 165.065 102.546C166.064 101.592 166.724 100.195 166.724 98.6863Z" fill="#3D366A"/>
<path d="M173.918 105.453V92.3642C173.918 91.6986 174.506 91.144 175.26 91.144H175.282C175.282 91.144 175.282 91.144 175.332 91.144H183.241C183.951 91.144 184.583 91.6986 184.583 92.3642C184.583 93.0519 183.951 93.6065 183.241 93.6065H176.624V97.6662H182.309C183.041 97.6662 183.651 98.243 183.651 98.8863C183.651 99.574 183.041 100.129 182.309 100.129H176.624V105.453C176.624 106.118 176.014 106.673 175.26 106.673C174.506 106.673 173.918 106.118 173.918 105.453Z" fill="#3D366A"/>
<path d="M195.697 102.813C196.135 102.325 196.939 102.258 197.477 102.657C198.553 103.456 200.406 104.388 202.142 104.366C203.362 104.366 204.46 104.033 205.192 103.545C205.924 103.057 206.24 102.502 206.24 101.948C206.24 101.659 206.168 101.46 206.018 101.238C205.874 101.016 205.652 100.794 205.286 100.572C204.576 100.151 203.384 99.7735 201.942 99.5295H201.892C200.744 99.3299 199.674 99.0636 198.742 98.6643C197.81 98.265 197.012 97.7104 196.474 96.934C196.108 96.4015 195.913 95.7804 195.913 95.1149C195.913 93.7838 196.745 92.6302 197.866 91.876C199.014 91.1217 200.5 90.7002 202.086 90.7002C204.427 90.7002 206.163 91.7429 207.405 92.4749C207.965 92.8299 208.137 93.5398 207.749 94.05C207.383 94.5824 206.601 94.7377 206.018 94.3828C204.77 93.6285 203.578 92.963 202.092 92.963C200.994 92.963 200.018 93.2736 199.358 93.7172C198.698 94.1609 198.431 94.649 198.431 95.1149C198.431 95.3811 198.481 95.5585 198.603 95.736C198.725 95.9135 198.947 96.1131 199.263 96.3128C199.895 96.7121 200.994 97.0671 202.314 97.2889H202.363C203.606 97.5108 204.754 97.7992 205.73 98.2207C206.728 98.6643 207.61 99.2411 208.17 100.062C208.536 100.594 208.758 101.26 208.758 101.948C208.758 103.367 207.882 104.588 206.656 105.386C205.458 106.185 203.872 106.651 202.142 106.651C199.507 106.628 197.283 105.431 195.891 104.432C195.359 104.033 195.287 103.301 195.697 102.813Z" fill="#3D366A"/>
<path d="M211.598 98.6865C211.62 94.294 215.674 90.7224 220.555 90.7002C222.701 90.7002 224.653 91.3435 226.195 92.4306C226.783 92.8743 226.877 93.6507 226.439 94.2053C225.951 94.7599 225.047 94.8486 224.487 94.4493C223.411 93.6507 222.069 93.2292 220.56 93.2292C218.874 93.2292 217.316 93.8504 216.168 94.8265C215.069 95.8469 214.387 97.178 214.387 98.6865C214.387 100.195 215.069 101.57 216.168 102.547C217.316 103.523 218.874 104.144 220.56 104.144C222.074 104.144 223.389 103.722 224.487 102.924C225.047 102.547 225.951 102.635 226.439 103.168C226.877 103.722 226.783 104.521 226.195 104.942C224.659 106.029 222.706 106.673 220.555 106.673C215.674 106.673 211.625 103.101 211.598 98.6865Z" fill="#3D366A"/>
<path d="M230.775 105.453V92.3642C230.775 91.6765 231.363 91.144 232.118 91.144C232.872 91.144 233.482 91.6765 233.482 92.3642V97.6884H239.804V92.3642C239.804 91.6765 240.392 91.144 241.147 91.144C241.901 91.144 242.511 91.6765 242.511 92.3642V105.453C242.511 106.141 241.901 106.673 241.147 106.673C240.392 106.673 239.804 106.141 239.804 105.453V100.129H233.482V105.453C233.482 106.141 232.872 106.673 232.118 106.673C231.363 106.673 230.775 106.141 230.775 105.453Z" fill="#3D366A"/>
<path d="M260.503 93.0793C262.017 94.5434 262.965 96.4956 262.965 98.6919C262.965 100.888 262.011 102.863 260.503 104.304C259.061 105.746 256.914 106.678 254.668 106.678C252.328 106.678 250.176 105.746 248.69 104.304C247.175 102.863 246.271 100.888 246.271 98.6919C246.271 96.4956 247.175 94.5434 248.69 93.0793C250.176 91.6151 252.328 90.7056 254.668 90.7056C256.914 90.7056 259.066 91.6151 260.503 93.0793ZM260.187 98.6863C260.187 97.1778 259.527 95.7802 258.528 94.8041C257.502 93.8058 256.138 93.229 254.674 93.229C253.11 93.229 251.745 93.8058 250.719 94.8041C249.693 95.7802 249.061 97.1778 249.061 98.6863C249.061 100.195 249.693 101.592 250.719 102.546C251.745 103.545 253.11 104.144 254.674 104.144C256.138 104.144 257.502 103.545 258.528 102.546C259.527 101.592 260.187 100.195 260.187 98.6863Z" fill="#3D366A"/>
<path d="M280.135 93.0793C281.65 94.5434 282.598 96.4956 282.598 98.6919C282.598 100.888 281.644 102.863 280.135 104.304C278.693 105.746 276.547 106.678 274.301 106.678C271.961 106.678 269.809 105.746 268.322 104.304C266.808 102.863 265.904 100.888 265.904 98.6919C265.904 96.4956 266.808 94.5434 268.322 93.0793C269.809 91.6151 271.961 90.7056 274.301 90.7056C276.547 90.7056 278.699 91.6151 280.135 93.0793ZM279.819 98.6863C279.819 97.1778 279.159 95.7802 278.161 94.8041C277.135 93.8058 275.771 93.229 274.307 93.229C272.743 93.229 271.378 93.8058 270.352 94.8041C269.326 95.7802 268.694 97.1778 268.694 98.6863C268.694 100.195 269.326 101.592 270.352 102.546C271.378 103.545 272.743 104.144 274.307 104.144C275.771 104.144 277.135 103.545 278.161 102.546C279.159 101.592 279.819 100.195 279.819 98.6863Z" fill="#3D366A"/>
<path d="M286.186 105.453V92.3642C286.186 91.6986 286.773 91.144 287.528 91.144C288.282 91.144 288.892 91.6986 288.892 92.3642V104.211H295.508C296.218 104.211 296.851 104.765 296.851 105.453C296.851 106.118 296.218 106.673 295.508 106.673H287.6C287.55 106.673 287.55 106.673 287.55 106.673C287.528 106.673 287.528 106.673 287.528 106.673C286.768 106.673 286.186 106.118 286.186 105.453Z" fill="#3D366A"/>
<path d="M299.309 102.813C299.747 102.325 300.551 102.258 301.089 102.657C302.165 103.456 304.018 104.388 305.754 104.366C306.974 104.366 308.072 104.033 308.804 103.545C309.536 103.057 309.852 102.502 309.852 101.948C309.852 101.659 309.78 101.46 309.63 101.238C309.486 101.016 309.264 100.794 308.898 100.572C308.188 100.151 306.996 99.7735 305.554 99.5295H305.504C304.356 99.3299 303.286 99.0636 302.354 98.6643C301.422 98.265 300.624 97.7104 300.086 96.934C299.719 96.4015 299.525 95.7804 299.525 95.1149C299.525 93.7838 300.357 92.6302 301.478 91.876C302.626 91.1217 304.112 90.7002 305.698 90.7002C308.039 90.7002 309.774 91.7429 311.017 92.4749C311.577 92.8299 311.749 93.5398 311.361 94.05C310.995 94.5824 310.213 94.7377 309.63 94.3828C308.382 93.6285 307.19 92.963 305.698 92.963C304.6 92.963 303.624 93.2736 302.964 93.7172C302.304 94.1609 302.038 94.649 302.038 95.1149C302.038 95.3811 302.088 95.5585 302.21 95.736C302.332 95.9135 302.554 96.1131 302.87 96.3128C303.502 96.7121 304.6 97.0671 305.92 97.2889H305.97C307.212 97.5108 308.36 97.7992 309.336 98.2207C310.335 98.6643 311.216 99.2411 311.777 100.062C312.143 100.594 312.365 101.26 312.365 101.948C312.365 103.367 311.488 104.588 310.263 105.386C309.065 106.185 307.478 106.651 305.748 106.651C303.114 106.628 300.89 105.431 299.498 104.432C298.965 104.033 298.893 103.301 299.309 102.813Z" fill="#3D366A"/>
</svg>
