<svg width="42" height="42" viewBox="0 0 42 42" fill="none" xmlns="http://www.w3.org/2000/svg">
<path d="M11.7901 8C11.581 8.00036 11.3805 8.08579 11.2324 8.2374C11.0845 8.38902 11.0009 8.59468 11 8.8094V33.1842C10.9991 33.4001 11.082 33.6074 11.2303 33.7602C11.3785 33.9133 11.58 33.9996 11.7901 34H29.2052C29.4163 34.0009 29.6188 33.9151 29.7681 33.762C29.9173 33.6088 30.0009 33.401 30 33.1842V15.041H23.9281C23.4907 15.0426 23.1348 14.6806 23.1334 14.2318L23.1332 8.00016L11.7901 8ZM24.7166 8.47283V13.4207H29.5363L24.7166 8.47283ZM18.0724 13.0622C19.6343 13.0622 20.9175 14.379 20.9175 15.9821C20.9175 16.7337 20.6284 17.4157 20.1675 17.9355C21.1721 18.6305 21.8359 19.8093 21.8359 21.1411V23.4024H21.836C21.8369 23.6183 21.754 23.8256 21.6058 23.9784C21.4575 24.1315 21.2561 24.2178 21.046 24.2182H15.0975C14.8876 24.2173 14.6867 24.131 14.5387 23.9779C14.3908 23.825 14.3081 23.6181 14.309 23.4024V21.141C14.309 19.8093 14.9728 18.6305 15.9774 17.9355C15.5165 17.4157 15.2258 16.7336 15.226 15.9821C15.226 14.379 16.5107 13.0621 18.0727 13.0621L18.0724 13.0622ZM18.0724 14.6872C17.3662 14.6872 16.809 15.2573 16.809 15.9821C16.809 16.7068 17.366 17.2786 18.0724 17.2786C18.7785 17.2786 19.3341 16.707 19.3341 15.9821C19.3341 15.2574 18.7785 14.6872 18.0724 14.6872ZM18.0724 18.9036C16.8495 18.9036 15.8921 19.8862 15.8921 21.141V22.5915H20.2509V21.141C20.2509 19.886 19.2951 18.9036 18.0722 18.9036H18.0724ZM15.0743 25.8669H25.9211C26.1998 25.8732 26.4548 26.0296 26.5923 26.2782C26.73 26.5271 26.73 26.8317 26.5923 27.0806C26.4548 27.3294 26.1998 27.4855 25.9211 27.4919H15.0743C14.8613 27.4968 14.6555 27.4134 14.5031 27.2605C14.3508 27.1076 14.2649 26.8981 14.2649 26.6794C14.2649 26.4608 14.3508 26.2514 14.5031 26.0985C14.6555 25.9456 14.8613 25.8622 15.0743 25.8669ZM14.9986 29.1471C15.0237 29.1459 15.049 29.1459 15.0743 29.1471H25.9211C26.2041 29.1475 26.4652 29.3026 26.6064 29.5541C26.7478 29.8055 26.7478 30.1152 26.6064 30.3666C26.4652 30.6182 26.204 30.7732 25.9211 30.7736H15.0743C14.7915 30.787 14.5231 30.6448 14.3701 30.4002C14.2172 30.1557 14.2027 29.8461 14.3323 29.5877C14.4618 29.3292 14.7157 29.1615 14.9986 29.1471Z" fill="white"/>
</svg>
