<svg width="42" height="42" viewBox="0 0 42 42" fill="none" xmlns="http://www.w3.org/2000/svg">
<path d="M21.9848 22.0404L23.3269 21.5345C23.4335 21.4945 23.5286 21.4294 23.6045 21.3448L24.6936 20.115C25.1844 19.5549 25.892 19.2325 26.6366 19.2296C26.8231 19.2296 27.0017 19.1554 27.1335 19.0237C27.2652 18.8919 27.3393 18.7133 27.3393 18.5269V11.4998C27.3393 10.9406 27.1172 10.4046 26.7219 10.0091C26.3265 9.61387 25.7904 9.39172 25.2313 9.39172H23.7029C23.5577 8.98116 23.2888 8.62547 22.9334 8.37395C22.5779 8.12221 22.1532 7.98692 21.7178 7.98633H16.0962C15.6607 7.98692 15.236 8.1222 14.8806 8.37395C14.5251 8.62551 14.2563 8.98119 14.111 9.39172H12.5827C12.0235 9.39172 11.4875 9.61386 11.092 10.0091C10.6968 10.4046 10.4746 10.9407 10.4746 11.4998V31.8782C10.4746 32.4374 10.6968 32.9734 11.092 33.3689C11.4875 33.7642 12.0236 33.9863 12.5827 33.9863H25.2313C25.7905 33.9863 26.3265 33.7642 26.7219 33.3689C27.1172 32.9734 27.3393 32.4374 27.3393 31.8782V31.3161C27.3391 31.093 27.2333 30.8832 27.0537 30.7508C26.8743 30.6185 26.6425 30.5791 26.4294 30.645L25.0942 31.0596C24.8436 31.1357 24.5832 31.1747 24.3213 31.1755C23.6378 31.1802 22.9804 30.9142 22.4924 30.4356C22.0046 29.957 21.7261 29.3047 21.7177 28.6212V27.6269C21.7144 27.5024 21.6779 27.3812 21.6122 27.2756L20.7058 25.7998C20.3001 25.1465 20.2084 24.3457 20.4562 23.6175C20.7038 22.8895 21.2647 22.3108 21.9847 22.0404L21.9848 22.0404ZM13.9881 14.3107H18.2043C18.5923 14.3107 18.907 14.6253 18.907 15.0134C18.907 15.4014 18.5923 15.7161 18.2043 15.7161H13.9881C13.6001 15.7161 13.2854 15.4014 13.2854 15.0134C13.2854 14.6253 13.6001 14.3107 13.9881 14.3107ZM16.0962 22.7431C15.7082 22.7431 15.3935 22.4284 15.3935 22.0404C15.3935 21.6524 15.7082 21.3377 16.0962 21.3377H19.2584C19.6464 21.3377 19.9611 21.6524 19.9611 22.0404C19.9611 22.4284 19.6464 22.7431 19.2584 22.7431H16.0962ZM19.2584 25.5539C19.2584 25.7404 19.1843 25.919 19.0525 26.0507C18.9207 26.1825 18.7421 26.2566 18.5557 26.2566H16.0962C15.7082 26.2566 15.3935 25.9419 15.3935 25.5539C15.3935 25.1659 15.7082 24.8512 16.0962 24.8512H18.5557C18.7421 24.8512 18.9207 24.9253 19.0525 25.0571C19.1843 25.1888 19.2584 25.3674 19.2584 25.5539ZM13.9881 29.7701C13.7038 29.7701 13.4478 29.599 13.3389 29.3364C13.2301 29.0737 13.2903 28.7715 13.4913 28.5706C13.6923 28.3696 13.9944 28.3094 14.2571 28.4182C14.5197 28.527 14.6908 28.7831 14.6908 29.0674C14.6908 29.2539 14.6167 29.4325 14.485 29.5643C14.3532 29.696 14.1746 29.7701 13.9881 29.7701ZM13.9881 26.2566C13.7038 26.2566 13.4478 26.0854 13.3389 25.8229C13.2301 25.5602 13.2903 25.258 13.4913 25.0571C13.6923 24.8561 13.9944 24.7959 14.2571 24.9047C14.5197 25.0135 14.6908 25.2696 14.6908 25.5539C14.6908 25.7404 14.6167 25.919 14.485 26.0507C14.3532 26.1825 14.1746 26.2566 13.9881 26.2566ZM13.9881 22.7431C13.7038 22.7431 13.4478 22.5719 13.3389 22.3094C13.2301 22.0467 13.2903 21.7445 13.4913 21.5435C13.6923 21.3426 13.9944 21.2824 14.2571 21.3912C14.5197 21.5 14.6908 21.7561 14.6908 22.0404C14.6908 22.2269 14.6167 22.4055 14.485 22.5372C14.3532 22.669 14.1746 22.7431 13.9881 22.7431ZM13.9881 19.2296C13.7038 19.2296 13.4478 19.0584 13.3389 18.7959C13.2301 18.5331 13.2903 18.231 13.4913 18.03C13.6923 17.8291 13.9944 17.7689 14.2571 17.8777C14.5197 17.9865 14.6908 18.2426 14.6908 18.5269C14.6908 18.7133 14.6167 18.892 14.485 19.0237C14.3532 19.1555 14.1746 19.2296 13.9881 19.2296ZM20.6638 29.0674C20.6638 29.2539 20.5896 29.4325 20.4579 29.5642C20.3261 29.696 20.1475 29.7701 19.9611 29.7701H16.0962C15.7082 29.7701 15.3935 29.4554 15.3935 29.0674C15.3935 28.6794 15.7082 28.3647 16.0962 28.3647H19.9611C20.1475 28.3647 20.3261 28.4388 20.4579 28.5706C20.5896 28.7023 20.6638 28.881 20.6638 29.0674ZM16.0962 19.2296C15.7082 19.2296 15.3935 18.9149 15.3935 18.5269C15.3935 18.1389 15.7082 17.8242 16.0962 17.8242H23.8259C24.2139 17.8242 24.5286 18.1389 24.5286 18.5269C24.5286 18.9149 24.2139 19.2296 23.8259 19.2296H16.0962Z" fill="white"/>
<path d="M31.4961 24.0711C31.3865 23.7325 31.1275 23.4631 30.7934 23.3402L28.9665 22.6374L27.5295 21.0213C27.304 20.7644 26.9787 20.6172 26.637 20.6172C26.2953 20.6172 25.97 20.7644 25.7445 21.0213L24.3076 22.6374L22.4807 23.3402C22.1466 23.4631 21.8876 23.7325 21.778 24.0711C21.6656 24.3977 21.7095 24.7579 21.8974 25.0479L23.1236 27.0225V28.6106V28.6104C23.1232 28.9806 23.3026 29.328 23.6049 29.5416C23.8094 29.6896 24.0553 29.7696 24.3076 29.77C24.427 29.7702 24.5456 29.7512 24.659 29.7137L26.637 29.1094L28.5871 29.7137C28.9459 29.8243 29.3359 29.7606 29.6412 29.5416C29.9541 29.3343 30.1447 28.9859 30.1505 28.6104V27.0223L31.3732 25.0583C31.563 24.7653 31.6082 24.4016 31.4961 24.0711Z" fill="white"/>
</svg>
