<svg width="320" height="320" viewBox="0 0 320 320" fill="none" xmlns="http://www.w3.org/2000/svg">
<path opacity="0.7" d="M43.4732 106.937C43.4732 106.937 25.63 153.017 50.7052 199.417C75.7804 245.817 127.428 270.329 168.766 291.289C210.104 312.249 253.028 302.041 273.425 267.712C293.822 233.382 265.848 208.877 265.809 159.923C265.771 110.969 273.137 98.0094 246.609 56.6526C220.081 15.2958 155.051 6.13737 105.873 36.8126C56.6956 67.4878 43.4732 106.937 43.4732 106.937Z" fill="white"/>
<path d="M40.7608 89.0623C57.8552 55.8847 89.5992 30.7839 129.119 27.2511C156.3 24.8811 183.39 32.7184 205.106 49.2351C215.897 57.5551 225.484 68.1471 231.852 80.2367C239.161 94.1247 241.292 110.137 248.812 123.961C258.162 141.145 275.724 148.237 287.519 163.085C297.228 175.315 300.562 191.705 299.449 207.283C297.414 235.718 280.754 262.713 256.249 277.286C235.532 289.606 210.559 293.005 186.489 291.885C149.369 290.163 112.415 277.92 83.18 254.989C53.9448 232.057 32.9336 198.157 27.9544 161.337C24.5688 136.32 29.4904 110.931 40.7608 89.0623Z" fill="#FFB200"/>
<path opacity="0.7" d="M40.7608 89.0623C57.8552 55.8847 89.5992 30.7839 129.119 27.2511C156.3 24.8811 183.39 32.7184 205.106 49.2351C215.897 57.5551 225.484 68.1471 231.852 80.2367C239.161 94.1247 241.292 110.137 248.812 123.961C258.162 141.145 275.724 148.237 287.519 163.085C297.228 175.315 300.562 191.705 299.449 207.283C297.414 235.718 280.754 262.713 256.249 277.286C235.532 289.606 210.559 293.005 186.489 291.885C149.369 290.163 112.415 277.92 83.18 254.989C53.9448 232.057 32.9336 198.157 27.9544 161.337C24.5688 136.32 29.4904 110.931 40.7608 89.0623Z" fill="white"/>
<path d="M29.4844 101.19C30.2396 104.185 29.8684 98.6748 31.3468 91.942C32.8252 85.2092 35.366 87.9356 35.366 87.9356" stroke="#263238" stroke-width="0.64" stroke-linecap="round" stroke-linejoin="round"/>
<path d="M29.0234 94.31L33.6634 92.4092" stroke="#263238" stroke-width="0.64" stroke-linecap="round" stroke-linejoin="round"/>
<path d="M37.4964 90.125C37.4964 90.125 34.7252 95.885 38.9044 98.3042" stroke="#263238" stroke-width="0.64" stroke-linecap="round" stroke-linejoin="round"/>
<path d="M41.4336 88.5117C41.4336 88.5117 46.016 91.0717 43.1488 96.5629" stroke="#263238" stroke-width="0.64" stroke-linecap="round" stroke-linejoin="round"/>
<path d="M38.2969 92.0703L41.5801 94.4639" stroke="#263238" stroke-width="0.64" stroke-linecap="round" stroke-linejoin="round"/>
<path d="M40.8691 91.0146L38.3027 95.1042" stroke="#263238" stroke-width="0.64" stroke-linecap="round" stroke-linejoin="round"/>
<path d="M55.6144 152.309C56.2389 148.503 53.6603 144.912 49.8549 144.288C46.0496 143.663 42.4584 146.242 41.8339 150.047C41.2094 153.853 43.788 157.444 47.5934 158.068C51.3987 158.693 54.9899 156.114 55.6144 152.309Z" stroke="#263238" stroke-width="0.64" stroke-linecap="round" stroke-linejoin="round"/>
<path d="M59.7563 161.496C63.946 160.637 66.6459 156.544 65.7866 152.354C64.9274 148.165 60.8344 145.465 56.6447 146.324C52.455 147.183 49.7552 151.276 50.6144 155.466C51.4737 159.656 55.5667 162.356 59.7563 161.496Z" stroke="#263238" stroke-width="0.64" stroke-linecap="round" stroke-linejoin="round"/>
<path d="M55.0839 148.294L51.8711 149.44" stroke="#263238" stroke-width="0.64" stroke-linecap="round" stroke-linejoin="round"/>
<path d="M55.5329 149.619L50.9121 151.29" stroke="#263238" stroke-width="0.64" stroke-linecap="round" stroke-linejoin="round"/>
<path d="M55.7053 151.219L50.5469 153.203" stroke="#263238" stroke-width="0.64" stroke-linecap="round" stroke-linejoin="round"/>
<path d="M55.3407 153.401L50.6367 155.552" stroke="#263238" stroke-width="0.64" stroke-linecap="round" stroke-linejoin="round"/>
<path d="M54.5087 155.078L50.9375 156.563" stroke="#263238" stroke-width="0.64" stroke-linecap="round" stroke-linejoin="round"/>
<path d="M52.0959 140.538C51.8975 139.898 49.6319 139.501 49.5359 141.178C49.4399 142.854 51.9231 141.459 52.6271 140.538C52.6271 140.538 51.3471 142.259 51.8847 142.598" stroke="#263238" stroke-width="0.64" stroke-linecap="round" stroke-linejoin="round"/>
<path d="M64.6385 142.623L62.6289 146.802C62.6289 146.802 63.6337 144.709 64.7089 144.882C66.0337 145.119 65.1505 147.289 63.5505 146.489" stroke="#263238" stroke-width="0.64" stroke-linecap="round" stroke-linejoin="round"/>
<path d="M283.334 210.86L286.489 213.843" stroke="#263238" stroke-width="0.64" stroke-linecap="round" stroke-linejoin="round"/>
<path d="M286.489 210.08L283.846 214.029" stroke="#263238" stroke-width="0.64" stroke-linecap="round" stroke-linejoin="round"/>
<path d="M289.594 211.213L292.755 210.035" stroke="#263238" stroke-width="0.64" stroke-linecap="round" stroke-linejoin="round"/>
<path d="M294.271 206.745L296.191 208.441" stroke="#263238" stroke-width="0.64" stroke-linecap="round" stroke-linejoin="round"/>
<path d="M297.664 204.703L295.232 213.049" stroke="#263238" stroke-width="0.64" stroke-linecap="round" stroke-linejoin="round"/>
<path d="M150.381 163.981L158.874 158.138L170.118 158.925L170.822 173.184L162.566 179.085L152.378 178.342L150.381 163.981Z" stroke="#263238" stroke-width="0.64" stroke-linecap="round" stroke-linejoin="round"/>
<path d="M152.377 178.342L160.601 172.422L170.822 173.183" stroke="#263238" stroke-width="0.64" stroke-linecap="round" stroke-linejoin="round"/>
<path d="M160.601 172.422L158.873 158.138" stroke="#263238" stroke-width="0.64" stroke-linecap="round" stroke-linejoin="round"/>
<path d="M150.381 163.981L161.6 165.28L170.118 158.925" stroke="#263238" stroke-width="0.64" stroke-linecap="round" stroke-linejoin="round"/>
<path d="M161.6 165.279L162.566 179.084" stroke="#263238" stroke-width="0.64" stroke-linecap="round" stroke-linejoin="round"/>
<path d="M249.503 116.076L245.74 127.769L257.452 126.188L249.503 116.076Z" stroke="#263238" stroke-width="0.64" stroke-linecap="round" stroke-linejoin="round"/>
<path d="M249.504 116.076L251.597 126.911" stroke="#263238" stroke-width="0.64" stroke-linecap="round" stroke-linejoin="round"/>
<path d="M251.264 125.178L252.633 124.96L252.953 126.797" stroke="#263238" stroke-width="0.64" stroke-linecap="round" stroke-linejoin="round"/>
<path d="M102.01 223.078L107.859 225.952" stroke="#263238" stroke-width="0.64" stroke-linecap="round" stroke-linejoin="round"/>
<path d="M105.972 220.883L104.295 226.995" stroke="#263238" stroke-width="0.64" stroke-linecap="round" stroke-linejoin="round"/>
<path d="M106.783 217.901C106.879 217.801 106.997 217.726 107.127 217.68C107.258 217.635 107.397 217.62 107.534 217.638C107.671 217.656 107.802 217.706 107.916 217.784C108.03 217.862 108.124 217.965 108.191 218.086C108.78 219.008 107.628 220.941 107.628 220.941L109.977 220.045" stroke="#263238" stroke-width="0.64" stroke-linecap="round" stroke-linejoin="round"/>
<path d="M147.936 21.7598C153.523 24.9022 147.123 32.5822 147.123 37.0622C147.123 41.5422 153.523 40.9022 156.723 42.1822C158.003 42.1822 160.563 42.1822 160.493 45.4334" stroke="#263238" stroke-width="0.64" stroke-linecap="round" stroke-linejoin="round"/>
<path d="M141.709 25.8369C142.682 31.1297 148.749 29.2545 152.474 30.4641C158.874 32.5441 155.322 39.1489 153.415 43.1425C152.269 45.5233 151.13 48.8641 153.178 51.1233" stroke="#263238" stroke-width="0.64" stroke-linecap="round" stroke-linejoin="round"/>
<path d="M142.527 27.8905L149.19 22.3545" stroke="#263238" stroke-width="0.64" stroke-linecap="round" stroke-linejoin="round"/>
<path d="M145.139 29.5418L150.156 25.3818" stroke="#263238" stroke-width="0.64" stroke-linecap="round" stroke-linejoin="round"/>
<path d="M148.09 33.7538L152.327 30.4258" stroke="#263238" stroke-width="0.64" stroke-linecap="round" stroke-linejoin="round"/>
<path d="M147.213 38.7323L155.494 32.7803" stroke="#263238" stroke-width="0.64" stroke-linecap="round" stroke-linejoin="round"/>
<path d="M150.387 41.0561L156.16 36.8193" stroke="#263238" stroke-width="0.64" stroke-linecap="round" stroke-linejoin="round"/>
<path d="M152.844 50.0607L160.057 44.1855" stroke="#263238" stroke-width="0.64" stroke-linecap="round" stroke-linejoin="round"/>
<path d="M153.023 45.4397L157.727 42.1309" stroke="#263238" stroke-width="0.64" stroke-linecap="round" stroke-linejoin="round"/>
<path d="M58.8482 226.266C65.7204 223.517 69.0632 215.718 66.3145 208.846C63.5658 201.974 55.7666 198.631 48.8944 201.38C42.0222 204.128 38.6794 211.927 41.4281 218.8C44.1768 225.672 51.976 229.015 58.8482 226.266Z" stroke="#263238" stroke-width="0.64" stroke-linecap="round" stroke-linejoin="round"/>
<path d="M57.2407 200.857C61.9127 195.372 65.8871 192.268 67.4167 193.28C69.7463 194.809 65.5671 205.254 58.0855 216.601C50.6039 227.948 42.6487 235.91 40.3191 234.374C38.7831 233.369 40.0759 228.492 43.2759 222.035" stroke="#263238" stroke-width="0.64" stroke-linecap="round" stroke-linejoin="round"/>
<path d="M40.7546 216.576C34.2394 214.701 30.0794 212.512 30.3418 210.765C30.7194 208 41.977 207.36 55.4234 209.376C68.8698 211.392 79.4426 215.213 79.0394 217.965C78.7514 219.885 73.2794 220.761 65.5034 220.467" stroke="#263238" stroke-width="0.64" stroke-linecap="round" stroke-linejoin="round"/>
<path d="M42.4636 206.867C37.5484 197.996 35.0908 191.078 36.7548 189.996C38.9436 188.582 47.4044 197.76 55.654 210.476C63.9036 223.193 68.8124 234.688 66.63 236.108C65.1836 237.043 60.9916 233.344 55.9292 227.046" stroke="#263238" stroke-width="0.64" stroke-linecap="round" stroke-linejoin="round"/>
<path d="M69.3062 199.078C69.0675 199.442 68.7264 199.727 68.3259 199.897C67.9255 200.067 67.4836 200.115 67.0561 200.034C66.6286 199.953 66.2346 199.747 65.9239 199.443C65.6132 199.138 65.3998 198.748 65.3105 198.322C65.2212 197.896 65.2601 197.454 65.4223 197.05C65.5845 196.646 65.8627 196.3 66.2217 196.054C66.5807 195.808 67.0045 195.674 67.4396 195.669C67.8747 195.664 68.3015 195.788 68.6662 196.025C68.909 196.183 69.1183 196.388 69.282 196.627C69.4457 196.866 69.5606 197.135 69.62 197.419C69.6795 197.702 69.6824 197.995 69.6285 198.28C69.5746 198.564 69.4651 198.836 69.3062 199.078Z" fill="#263238"/>
<path d="M62.0151 232.8C61.7765 233.164 61.4354 233.449 61.0349 233.619C60.6345 233.789 60.1926 233.836 59.7651 233.755C59.3375 233.675 58.9436 233.469 58.6329 233.164C58.3222 232.86 58.1088 232.47 58.0195 232.044C57.9302 231.618 57.9691 231.175 58.1313 230.772C58.2935 230.368 58.5716 230.021 58.9307 229.775C59.2897 229.53 59.7135 229.396 60.1486 229.391C60.5837 229.386 61.0105 229.51 61.3751 229.747C61.618 229.905 61.8273 230.11 61.991 230.349C62.1547 230.588 62.2696 230.857 62.329 231.14C62.3885 231.424 62.3914 231.717 62.3375 232.001C62.2836 232.286 62.1741 232.557 62.0151 232.8Z" fill="#263238"/>
<path d="M50.2515 209.92C50.0128 210.284 49.6717 210.569 49.2713 210.739C48.8708 210.909 48.4289 210.956 48.0014 210.876C47.5739 210.795 47.1799 210.589 46.8692 210.284C46.5586 209.98 46.3451 209.59 46.2558 209.164C46.1666 208.738 46.2055 208.295 46.3676 207.892C46.5298 207.488 46.808 207.141 47.167 206.896C47.526 206.65 47.9499 206.516 48.3849 206.511C48.82 206.506 49.2468 206.63 49.6115 206.867C50.1006 207.187 50.4428 207.689 50.5627 208.261C50.6827 208.833 50.5708 209.43 50.2515 209.92Z" fill="#263238"/>
<path d="M190.611 114.124H198.151L201.92 107.596L198.151 101.068H190.611L186.842 107.596L190.611 114.124Z" stroke="#263238" stroke-width="0.64" stroke-linecap="round" stroke-linejoin="round"/>
<path d="M189.516 128.454L185.746 121.926H178.207" stroke="#263238" stroke-width="0.64" stroke-linecap="round" stroke-linejoin="round"/>
<path d="M179.219 107.597H186.758L190.528 101.069L186.758 94.5342H179.219L175.449 101.069L179.219 107.597Z" stroke="#263238" stroke-width="0.64" stroke-linecap="round" stroke-linejoin="round"/>
<path d="M190.611 101.068H198.151L201.92 94.5339L198.151 88.0059H190.611L186.842 94.5339L190.611 101.068Z" stroke="#263238" stroke-width="0.64" stroke-linecap="round" stroke-linejoin="round"/>
<path d="M190.527 102.08C191.085 102.08 191.538 101.627 191.538 101.069C191.538 100.51 191.085 100.058 190.527 100.058C189.968 100.058 189.516 100.51 189.516 101.069C189.516 101.627 189.968 102.08 190.527 102.08Z" fill="#263238"/>
<path d="M174.783 88.371C175.341 88.371 175.794 87.9183 175.794 87.3598C175.794 86.8014 175.341 86.3486 174.783 86.3486C174.224 86.3486 173.771 86.8014 173.771 87.3598C173.771 87.9183 174.224 88.371 174.783 88.371Z" fill="#263238"/>
<path d="M188.506 128.455C188.506 128.255 188.565 128.059 188.676 127.893C188.787 127.726 188.945 127.597 189.13 127.52C189.315 127.444 189.518 127.424 189.714 127.463C189.91 127.502 190.091 127.598 190.232 127.74C190.374 127.881 190.47 128.061 190.509 128.257C190.548 128.453 190.528 128.657 190.451 128.842C190.375 129.026 190.245 129.184 190.079 129.295C189.913 129.406 189.717 129.466 189.517 129.466C189.384 129.466 189.253 129.44 189.13 129.389C189.007 129.338 188.896 129.263 188.802 129.17C188.708 129.076 188.634 128.964 188.583 128.842C188.532 128.719 188.506 128.587 188.506 128.455Z" fill="#263238"/>
<path d="M178.207 122.937C178.765 122.937 179.218 122.485 179.218 121.926C179.218 121.368 178.765 120.915 178.207 120.915C177.648 120.915 177.195 121.368 177.195 121.926C177.195 122.485 177.648 122.937 178.207 122.937Z" fill="#263238"/>
<path d="M209.215 94.7197C209.215 94.5182 209.275 94.3212 209.387 94.1537C209.499 93.9862 209.658 93.8558 209.845 93.779C210.031 93.7022 210.236 93.6824 210.433 93.7222C210.631 93.762 210.812 93.8595 210.954 94.0025C211.096 94.1454 211.193 94.3273 211.231 94.5252C211.27 94.723 211.249 94.9278 211.171 95.1136C211.093 95.2994 210.961 95.4579 210.793 95.5689C210.625 95.68 210.428 95.7386 210.226 95.7373C210.093 95.7373 209.961 95.711 209.838 95.6597C209.715 95.6085 209.603 95.5335 209.509 95.4389C209.415 95.3443 209.34 95.2321 209.29 95.1087C209.24 94.9852 209.214 94.8531 209.215 94.7197Z" fill="#263238"/>
<path d="M185.669 122.937C186.228 122.937 186.681 122.485 186.681 121.926C186.681 121.368 186.228 120.915 185.669 120.915C185.111 120.915 184.658 121.368 184.658 121.926C184.658 122.485 185.111 122.937 185.669 122.937Z" fill="#263238"/>
<path d="M200.908 94.7197C200.908 94.5185 200.968 94.3217 201.08 94.1544C201.192 93.9871 201.35 93.8566 201.536 93.7796C201.722 93.7026 201.927 93.6824 202.124 93.7217C202.322 93.761 202.503 93.8579 202.645 94.0002C202.788 94.1425 202.885 94.3238 202.924 94.5212C202.963 94.7186 202.943 94.9232 202.866 95.1092C202.789 95.2951 202.658 95.454 202.491 95.5659C202.324 95.6777 202.127 95.7373 201.926 95.7373C201.656 95.7373 201.397 95.6301 201.206 95.4393C201.015 95.2485 200.908 94.9896 200.908 94.7197Z" fill="#263238"/>
<path d="M189.516 114.131C189.514 113.93 189.573 113.732 189.684 113.564C189.796 113.395 189.955 113.264 190.141 113.186C190.327 113.108 190.532 113.088 190.73 113.127C190.928 113.166 191.11 113.263 191.253 113.405C191.395 113.548 191.493 113.73 191.532 113.928C191.571 114.126 191.55 114.331 191.472 114.517C191.394 114.704 191.263 114.862 191.095 114.974C190.926 115.085 190.729 115.144 190.527 115.143C190.259 115.141 190.003 115.034 189.814 114.845C189.624 114.655 189.517 114.399 189.516 114.131Z" fill="#263238"/>
<path d="M201.926 94.707H210.227" stroke="#263238" stroke-width="0.64" stroke-linecap="round" stroke-linejoin="round"/>
<path d="M190.528 114.131L185.67 121.926" stroke="#263238" stroke-width="0.64" stroke-linecap="round" stroke-linejoin="round"/>
<path d="M179.218 94.5338L174.783 87.3594" stroke="#263238" stroke-width="0.64" stroke-linecap="round" stroke-linejoin="round"/>
<path d="M232.691 68.8C233.561 65.8607 235.373 63.2893 237.849 61.4821C240.325 59.675 243.326 58.7326 246.391 58.8003C249.455 58.868 252.412 59.942 254.806 61.8567C257.199 63.7714 258.896 66.4204 259.635 69.3952" stroke="#263238" stroke-width="0.64" stroke-linecap="round" stroke-linejoin="round"/>
<path d="M244.481 86.6168C241.075 86.2271 237.933 84.5983 235.651 82.0406C233.37 79.483 232.109 76.1754 232.109 72.748" stroke="#263238" stroke-width="0.64" stroke-linecap="round" stroke-linejoin="round"/>
<path d="M260.038 72.749C260.038 76.4499 258.568 79.9993 255.952 82.6168C253.336 85.2344 249.787 86.7057 246.086 86.7074" stroke="#263238" stroke-width="0.64" stroke-linecap="round" stroke-linejoin="round"/>
<path d="M260.833 63.8972C265.197 63.3404 268.122 63.6412 268.577 64.9468C269.479 67.5452 260.141 73.1452 247.719 77.4588C235.297 81.7724 224.5 83.1548 223.591 80.55C223.111 79.1612 225.556 76.9148 229.831 74.4636" stroke="#263238" stroke-width="0.64" stroke-linecap="round" stroke-linejoin="round"/>
<path d="M185.67 54.3359L187.008 57.0431L189.997 57.4783L187.833 59.5903L188.345 62.5663L185.67 61.1583L182.995 62.5663L183.507 59.5903L181.344 57.4783L184.333 57.0431L185.67 54.3359Z" stroke="#263238" stroke-width="0.64" stroke-linecap="round" stroke-linejoin="round"/>
<path d="M91.1808 47.1234C91.1791 49.5303 90.2226 51.8383 88.5212 53.5409C86.8198 55.2435 84.5125 56.2016 82.1056 56.205C81.8112 56.205 81.5232 56.1922 81.2416 56.1666C79.4899 56.0004 77.8243 55.329 76.447 54.2339C75.0698 53.1388 74.0404 51.6673 73.4838 49.9981C72.9273 48.3289 72.8676 46.534 73.3121 44.8315C73.7565 43.1291 74.686 41.5924 75.9874 40.4083C77.2889 39.2241 78.9063 38.4436 80.643 38.1614C82.3798 37.8793 84.1611 38.1078 85.7704 38.8191C87.3798 39.5304 88.7478 40.6939 89.7083 42.1681C90.6688 43.6423 91.1804 45.3638 91.1808 47.1234Z" stroke="#263238" stroke-width="0.64" stroke-linecap="round" stroke-linejoin="round"/>
<path d="M89.7281 48.761C89.7294 49.0397 89.6479 49.3126 89.4939 49.545C89.34 49.7773 89.1205 49.9588 88.8634 50.0664C88.6062 50.1739 88.3229 50.2027 88.0494 50.1491C87.7758 50.0955 87.5243 49.9619 87.3268 49.7652C87.1292 49.5686 86.9945 49.3177 86.9396 49.0444C86.8848 48.7711 86.9123 48.4877 87.0187 48.23C87.125 47.9724 87.3055 47.7521 87.5372 47.5971C87.7689 47.4421 88.0413 47.3594 88.3201 47.3594C88.6924 47.3594 89.0496 47.5068 89.3134 47.7695C89.5773 48.0322 89.7264 48.3887 89.7281 48.761Z" stroke="#263238" stroke-width="0.64" stroke-linecap="round" stroke-linejoin="round"/>
<path d="M77.0876 52.3319C77.0881 52.6655 77.0149 52.9951 76.8733 53.2971C76.7317 53.5991 76.5252 53.8661 76.2684 54.0791C75.075 53.0939 74.1558 51.8176 73.5996 50.3735C73.9518 50.1572 74.3576 50.0442 74.7708 50.0471C75.0735 50.0429 75.3741 50.0988 75.655 50.2117C75.9359 50.3247 76.1916 50.4923 76.4071 50.7049C76.6227 50.9175 76.7939 51.1708 76.9107 51.4501C77.0275 51.7294 77.0876 52.0291 77.0876 52.3319Z" stroke="#263238" stroke-width="0.64" stroke-linecap="round" stroke-linejoin="round"/>
<path d="M88.3193 53.76C86.641 55.3495 84.4164 56.2338 82.1049 56.2304C81.8105 56.2304 81.5225 56.2176 81.2409 56.192C81.1893 55.9457 81.1636 55.6947 81.1641 55.4432C81.1645 54.5923 81.4522 53.7666 81.9806 53.0998C82.509 52.4329 83.2472 51.9641 84.0754 51.7693C84.9036 51.5745 85.7733 51.665 86.5436 52.0264C87.3139 52.3877 87.9396 52.9986 88.3193 53.76Z" stroke="#263238" stroke-width="0.64" stroke-linecap="round" stroke-linejoin="round"/>
<path d="M79.9028 43.5205C81.0551 43.5205 81.9892 42.5863 81.9892 41.4341C81.9892 40.2818 81.0551 39.3477 79.9028 39.3477C78.7505 39.3477 77.8164 40.2818 77.8164 41.4341C77.8164 42.5863 78.7505 43.5205 79.9028 43.5205Z" stroke="#263238" stroke-width="0.64" stroke-linecap="round" stroke-linejoin="round"/>
<path d="M81.8371 47.36C81.8371 47.5511 81.7804 47.7379 81.6742 47.8969C81.568 48.0558 81.4171 48.1796 81.2405 48.2528C81.0639 48.3259 80.8696 48.3451 80.6822 48.3078C80.4947 48.2705 80.3225 48.1785 80.1873 48.0433C80.0522 47.9082 79.9602 47.736 79.9229 47.5485C79.8856 47.361 79.9047 47.1667 79.9779 46.9901C80.051 46.8135 80.1749 46.6626 80.3338 46.5564C80.4927 46.4502 80.6796 46.3936 80.8707 46.3936C80.9976 46.3936 81.1233 46.4186 81.2405 46.4671C81.3578 46.5157 81.4643 46.5869 81.554 46.6766C81.6438 46.7663 81.715 46.8729 81.7635 46.9901C81.8121 47.1074 81.8371 47.233 81.8371 47.36Z" stroke="#263238" stroke-width="0.64" stroke-linecap="round" stroke-linejoin="round"/>
<path d="M89.4715 41.8238C89.2176 41.9071 88.9516 41.9482 88.6844 41.9454C88.335 41.9454 87.9891 41.8765 87.6665 41.7426C87.3438 41.6087 87.0507 41.4125 86.804 41.1652C86.5573 40.9179 86.3618 40.6243 86.2287 40.3014C86.0956 39.9784 86.0275 39.6323 86.0283 39.283C86.0218 39.1722 86.0218 39.061 86.0283 38.9502C87.3992 39.6038 88.5833 40.592 89.4715 41.8238Z" stroke="#263238" stroke-width="0.64" stroke-linecap="round" stroke-linejoin="round"/>
<path d="M298.143 152.505L299.122 150.304L297.535 149.433C297.593 149.046 297.604 148.652 297.567 148.262L299.192 147.468L298.328 145.222L296.588 145.721C296.354 145.408 296.083 145.124 295.781 144.876L296.376 143.161L294.175 142.182L293.298 143.769C292.909 143.721 292.516 143.721 292.127 143.769L291.34 142.144L289.087 143.008L289.592 144.742C289.278 144.979 288.993 145.252 288.741 145.555L287.032 144.96L286.079 147.129L287.666 148.006C287.607 148.394 287.597 148.787 287.634 149.177L286.002 149.964L286.866 152.217L288.607 151.712C288.842 152.026 289.112 152.311 289.413 152.563L288.824 154.272L291.026 155.251L291.896 153.664C292.284 153.722 292.677 153.733 293.068 153.696L293.861 155.328L296.108 154.464L295.608 152.723C295.92 152.488 296.204 152.217 296.453 151.916L298.143 152.505ZM291.448 151.276C290.943 151.052 290.516 150.682 290.22 150.214C289.925 149.747 289.775 149.202 289.789 148.649C289.803 148.096 289.981 147.56 290.3 147.108C290.619 146.656 291.064 146.309 291.581 146.111C292.097 145.912 292.66 145.871 293.2 145.993C293.739 146.114 294.231 146.393 294.612 146.794C294.993 147.195 295.247 147.699 295.341 148.244C295.435 148.789 295.366 149.35 295.141 149.856C294.839 150.533 294.28 151.062 293.588 151.329C292.896 151.595 292.127 151.576 291.448 151.276Z" stroke="#263238" stroke-width="0.64" stroke-linecap="round" stroke-linejoin="round"/>
<path d="M286.444 163.801L287.775 160.812L285.625 159.622C285.702 159.096 285.715 158.564 285.663 158.035L287.878 156.96L286.719 153.907L284.358 154.592C284.042 154.164 283.675 153.777 283.263 153.44L284.07 151.11L281.055 149.76L279.871 151.91C279.346 151.835 278.813 151.82 278.284 151.865L277.209 149.657L274.15 150.835L274.835 153.19C274.41 153.511 274.023 153.881 273.683 154.291L271.359 153.51L270.028 156.499L272.179 157.689C272.102 158.215 272.089 158.748 272.14 159.276L269.926 160.352L271.103 163.404L273.465 162.726C273.782 163.152 274.15 163.539 274.559 163.878L273.753 166.201L276.748 167.532L277.932 165.376C278.458 165.454 278.99 165.469 279.519 165.42L280.595 167.628L283.654 166.457L282.969 164.096C283.394 163.776 283.78 163.409 284.121 163.001L286.444 163.801ZM277.356 162.131C276.669 161.825 276.088 161.322 275.687 160.685C275.286 160.049 275.083 159.308 275.103 158.556C275.124 157.804 275.366 157.075 275.801 156.462C276.236 155.848 276.843 155.377 277.545 155.108C278.247 154.839 279.014 154.785 279.747 154.952C280.481 155.118 281.148 155.499 281.665 156.045C282.182 156.592 282.525 157.279 282.651 158.021C282.777 158.762 282.681 159.524 282.374 160.211C282.171 160.667 281.88 161.078 281.518 161.421C281.156 161.765 280.729 162.033 280.263 162.211C279.797 162.39 279.3 162.474 278.802 162.461C278.303 162.447 277.812 162.335 277.356 162.131Z" stroke="#263238" stroke-width="0.64" stroke-linecap="round" stroke-linejoin="round"/>
<path d="M153.773 135.431C152.896 137.093 151.906 138.692 150.81 140.218C145.124 148.124 136.769 153.705 127.288 155.929C117.807 158.154 107.842 156.872 99.2326 152.321C98.343 151.853 97.4726 151.354 96.6406 150.829C95.8086 150.305 94.9958 149.767 94.215 149.191C93.2678 148.506 92.359 147.777 91.4886 147.015C91.4329 146.973 91.3814 146.926 91.335 146.874C85.6635 141.855 81.5182 135.342 79.3726 128.079C77.2271 120.816 77.1679 113.095 79.2018 105.8C81.2356 98.5047 85.2805 91.9287 90.8744 86.8232C96.4682 81.7176 103.385 78.2885 110.836 76.9277C118.286 75.5668 125.969 76.329 133.006 79.1272C140.044 81.9254 146.152 86.6467 150.634 92.7518C155.115 98.8569 157.789 106.1 158.35 113.652C158.911 121.205 157.336 128.763 153.805 135.463L153.773 135.431Z" fill="#FFB200"/>
<mask id="mask0_51_17390" style="mask-type:luminance" maskUnits="userSpaceOnUse" x="77" y="76" width="82" height="81">
<path d="M153.773 135.432C152.896 137.094 151.906 138.693 150.81 140.219C145.124 148.125 136.769 153.706 127.288 155.93C117.807 158.155 107.842 156.873 99.2326 152.322C98.343 151.854 97.4726 151.355 96.6406 150.83C95.8086 150.306 94.9958 149.768 94.215 149.192C93.2678 148.507 92.359 147.778 91.4886 147.016C91.4329 146.974 91.3814 146.927 91.335 146.875C85.6635 141.856 81.5182 135.343 79.3726 128.08C77.2271 120.816 77.1679 113.096 79.2018 105.801C81.2356 98.5057 85.2805 91.9297 90.8744 86.8241C96.4682 81.7186 103.385 78.2895 110.836 76.9286C118.286 75.5677 125.969 76.3299 133.006 79.1281C140.044 81.9263 146.152 86.6477 150.634 92.7528C155.115 98.8579 157.789 106.1 158.35 113.653C158.911 121.206 157.336 128.764 153.805 135.464L153.773 135.432Z" fill="white"/>
</mask>
<g mask="url(#mask0_51_17390)">
<g opacity="0.6">
<path d="M153.773 135.432C152.896 137.093 151.906 138.693 150.81 140.219L150.029 139.579L148.685 138.868L147.27 138.126L147.507 136.417L147.43 134.875C147.347 133.332 148.461 134.593 149.35 134.126C150.044 133.63 150.605 132.971 150.982 132.206C150.982 132.206 151.622 130.152 151.411 129.326C151.067 128.375 150.66 127.447 150.195 126.548L147.904 129.748L145.984 129.601L144.166 128.641L143.93 126.113L142.995 125.627L142.605 124.174L137.555 122.76L136.979 121.748C136.403 120.737 134.08 120.219 134.08 120.219L134.65 118.9L135.546 117.428C136.448 115.956 137.382 118.401 137.382 118.401L138.451 118.958L140.435 117.294L140.96 114.907L144.192 115.092C144.129 114.769 144.178 114.434 144.332 114.143C144.486 113.852 144.734 113.622 145.037 113.492C146.112 113.07 145.638 110.734 145.229 109.87C144.819 109.006 143.309 109.704 143.309 109.704C143.309 109.704 141.664 107.201 141.44 106.203C141.216 105.204 144.576 105.563 146.016 104.558C147.456 103.553 146.963 101.556 146.259 101.512C145.555 101.467 147.635 96.9676 151.635 98.2028C152.749 98.5484 153.453 98.4268 153.888 98.0428C156.889 103.821 158.446 110.24 158.426 116.751C158.406 123.263 156.81 129.672 153.773 135.432Z" fill="white"/>
<path d="M125.786 118.119L124.417 119.841C124.417 119.841 123.834 118.452 123.002 119.201L121.722 120.34L120.794 122.938L119.13 124.014L118.113 123.482L117.153 122.97L116.11 122.42L115.111 124.34L114.298 125.876C114.694 126.63 115.187 127.329 115.764 127.956L117.53 131.073L119.681 132.161C120.578 132.194 121.47 132.301 122.35 132.481L123.828 133.255L123.303 136.455C123.303 136.455 122.19 138.266 121.447 137.767L120.698 137.274L119.482 141.486L119.431 143.802C119.431 143.802 118.708 144.103 117.978 144.346C117.249 144.59 117.71 144.462 116.18 144.935C114.65 145.409 114.772 145.39 113.53 145.742C112.472 146.112 111.453 146.588 110.49 147.162L110.599 149.39L107.674 149.818L106.036 148.948L106.439 147.54L106.631 145.338L106.407 143.694L105.703 142.241L107.674 140.455L107.239 139.335L106.119 137.108L103.751 138.388L102.535 139.028L99.7831 137.793L99.4823 136.122L98.5607 133.121L97.7031 131.252L96.1799 129.191L95.7959 127.418L96.6535 125.793L97.1079 124.935L95.7063 123.047L95.3223 121.703L92.9607 119.559C92.9607 119.559 93.6455 119.514 93.4919 118.561C93.3383 117.607 94.8423 116.001 94.8423 116.001C95.6935 116.449 98.2471 118.228 98.2471 118.228L100.481 118.535C100.481 118.535 100.929 118.535 101.364 117.69C101.872 116.913 102.469 116.198 103.143 115.559C103.143 115.559 102.113 111.982 102.849 111.502C103.585 111.022 104.334 108.679 104.334 108.679L104.922 107.559C104.922 107.559 103.534 106.951 103.271 106.215C103.009 105.479 99.5847 106.458 99.5847 106.458L97.2231 108.097L95.3607 109.537L94.5543 111.066C94.5543 111.066 92.9095 109.089 92.9031 110.196C92.7776 111.331 92.5287 112.449 92.1607 113.53C92.1607 113.53 92.4999 113.71 92.0519 114.567C91.6039 115.425 91.1175 115.38 90.1319 115.502C88.847 115.515 87.5631 115.427 86.2919 115.239C86.2919 115.239 85.6519 117.607 86.0935 118.017L86.5287 118.414C86.5287 118.414 85.8439 120.135 85.1655 119.777L83.5143 118.906L81.2039 119.841L78.6439 122.67L78.0743 122.554C76.5053 112.031 79.1542 101.313 85.445 92.7322C91.7358 84.1511 101.16 78.4004 111.668 76.7305C111.815 77.3705 111.975 77.9721 111.975 77.9721L111.335 81.1337L110.516 82.6953L109.812 84.0329L108.82 85.9145L111.361 88.2569L110.817 91.0281L109.441 91.8921L109.044 93.9721L111.406 98.5865L112.046 100.398C111.65 101.265 111.456 102.21 111.476 103.162C111.476 103.162 111.764 104.89 113.025 105.575C114.286 106.26 115.943 107.066 115.943 107.066L115.809 109.626L115.239 110.266L116.186 113.025C119.073 114.158 118.798 115.105 119.073 114.158L119.354 113.217L121.319 112.506L123.822 115.495C124.113 115.491 124.4 115.561 124.657 115.697C124.915 115.834 125.133 116.033 125.294 116.276C126.023 117.198 127.162 116.398 125.786 118.119Z" fill="white"/>
<path d="M91.866 140.41C91.9364 141.319 90.7844 142.458 90.7844 142.458L91.7252 142.951L92.0132 145.511L91.3028 146.867C86.2689 142.42 82.4293 136.783 80.1348 130.471L80.6468 127.757L82.906 127.437C82.906 127.437 84.9284 126.093 85.8244 126.451C86.7204 126.81 87.5396 129.011 87.5396 129.011C87.5396 129.011 88.1796 131.981 88.0964 131.923H88.058H88.1092L89.0308 132.41L89.2932 133.581L88.0132 136.013H85.9524C85.9524 136.013 85.5428 135.795 85.5044 136.864C85.5377 137.235 85.6504 137.594 85.8348 137.918C86.0193 138.242 86.271 138.522 86.5732 138.739L88.8004 138.17L89.3956 135.866L91.5844 135.437C91.5844 135.437 91.2708 136.851 91.7828 137.12L92.3012 137.395L92.6084 139.085C92.3791 139.221 92.1898 139.415 92.0594 139.648C91.9291 139.88 91.8624 140.143 91.866 140.41Z" fill="white"/>
<path d="M102.452 144.033C102.253 143.483 102.17 143.003 100.807 142.286C99.4436 141.569 99.5268 141.825 98.9892 142.42C98.7577 142.727 98.4416 142.958 98.0799 143.087C97.7182 143.215 97.3268 143.235 96.954 143.144C96.058 142.945 96.5252 143.956 96.5252 143.956L96.7428 146.689L94.2148 149.185C94.9956 149.761 95.8042 150.307 96.6404 150.824L97.178 149.172L101.376 150.401C100.487 150.139 101.012 148.923 101.012 148.923L100.116 148.449C100.116 148.449 102.65 144.571 102.452 144.033Z" fill="white"/>
<path d="M128.897 129.825L127.521 128.437L125.946 128.929L125.306 130.209L124.826 131.131L125.466 132.411L126.746 133.966L127.476 132.571C127.476 132.571 129.505 132.571 130.567 131.4C131.629 130.229 128.897 129.825 128.897 129.825Z" fill="white"/>
<path d="M124.852 123.559L127.412 124.903L127.514 124.302C127.647 123.82 127.883 123.372 128.205 122.99L126.247 120.916L124.852 123.559Z" fill="white"/>
<path d="M123.982 153.351L123.246 152.269L122.388 151.821H119.771L118.279 154.65C118.279 154.65 116.852 154.458 114.977 154.292C113.102 154.125 113.563 154.9 113.563 154.9L113.076 156.679C117.807 157.261 122.604 157.004 127.246 155.917C126.706 155.541 126.147 155.195 125.569 154.88L123.982 153.351Z" fill="white"/>
</g>
</g>
<path d="M153.773 135.431C152.896 137.093 151.906 138.692 150.81 140.218C145.124 148.124 136.769 153.705 127.288 155.929C117.807 158.154 107.842 156.872 99.2326 152.321C98.343 151.853 97.4726 151.354 96.6406 150.829C95.8086 150.305 94.9958 149.767 94.215 149.191C93.2678 148.506 92.359 147.777 91.4886 147.015C91.4329 146.973 91.3814 146.926 91.335 146.874C85.6635 141.855 81.5182 135.342 79.3726 128.079C77.2271 120.816 77.1679 113.095 79.2018 105.8C81.2356 98.5047 85.2805 91.9287 90.8744 86.8232C96.4682 81.7176 103.385 78.2885 110.836 76.9277C118.286 75.5668 125.969 76.329 133.006 79.1272C140.044 81.9254 146.152 86.6467 150.634 92.7518C155.115 98.8569 157.789 106.1 158.35 113.652C158.911 121.205 157.336 128.763 153.805 135.463L153.773 135.431Z" stroke="#263238" stroke-width="0.64" stroke-linecap="round" stroke-linejoin="round"/>
<path d="M127.246 155.918C122.604 157.005 117.807 157.262 113.076 156.68L113.563 154.901C113.563 154.901 113.102 154.126 114.977 154.293C116.852 154.459 118.279 154.651 118.279 154.651L119.771 151.822H122.388L123.246 152.27L123.982 153.352L125.569 154.881C126.147 155.196 126.706 155.542 127.246 155.918Z" stroke="#263238" stroke-width="0.64" stroke-linecap="round" stroke-linejoin="round"/>
<path d="M153.914 98.0489C153.478 98.4329 152.774 98.5545 151.661 98.2089C147.661 96.9737 145.587 101.467 146.285 101.518C146.982 101.569 147.475 103.591 146.042 104.564C144.608 105.537 141.242 105.204 141.466 106.209C141.69 107.214 143.334 109.71 143.334 109.71C143.334 109.71 144.806 109.019 145.222 109.876C145.638 110.734 146.112 113.076 145.037 113.499C144.734 113.628 144.486 113.858 144.332 114.149C144.178 114.44 144.129 114.775 144.192 115.099L140.96 114.913L140.435 117.3L138.451 118.964L137.382 118.407C137.382 118.407 136.448 115.963 135.546 117.435L134.65 118.907L134.08 120.225C134.08 120.225 136.403 120.743 136.979 121.755L137.555 122.766L142.605 124.18L142.995 125.633L143.93 126.119L144.166 128.647L146.048 129.633L147.968 129.78L150.259 126.58C150.724 127.479 151.131 128.406 151.475 129.358C151.699 130.183 151.046 132.238 151.046 132.238C150.669 133.002 150.108 133.662 149.414 134.158C148.499 134.625 147.379 133.364 147.494 134.907L147.571 136.449L147.334 138.158L148.749 138.9L150.093 139.611L150.874 140.251" stroke="#263238" stroke-width="0.64" stroke-linecap="round" stroke-linejoin="round"/>
<path d="M78.125 122.554L78.6946 122.669L81.2546 119.84L83.565 118.906L85.2162 119.776C85.8946 120.135 86.5794 118.413 86.5794 118.413L86.1442 118.016C85.7026 117.607 86.3426 115.239 86.3426 115.239C87.6138 115.426 88.8977 115.514 90.1826 115.501C91.1938 115.38 91.6738 115.418 92.1026 114.567C92.5314 113.716 92.2114 113.53 92.2114 113.53C92.5794 112.449 92.8283 111.331 92.9538 110.196C92.9538 109.088 94.605 111.066 94.605 111.066L95.4114 109.536L97.2162 108.103L99.5778 106.464C99.5778 106.464 103.002 105.479 103.264 106.221C103.527 106.964 104.915 107.565 104.915 107.565L104.327 108.685C104.327 108.685 103.571 111.015 102.842 111.508C102.112 112 103.136 115.565 103.136 115.565C102.462 116.204 101.865 116.919 101.357 117.696C100.909 118.554 100.474 118.541 100.474 118.541L98.2402 118.234C98.2402 118.234 95.6802 116.455 94.8354 116.007C94.8354 116.007 93.3314 117.613 93.485 118.567C93.6386 119.52 92.9538 119.565 92.9538 119.565L95.3154 121.709L95.6994 123.053L97.101 124.941L96.6466 125.799L95.789 127.424L96.173 129.197L97.6962 131.258L98.5602 133.12L99.4946 136.135L99.7954 137.805L102.547 139.04L103.763 138.4L106.131 137.12L107.251 139.348L107.687 140.468L105.715 142.253L106.419 143.706L106.643 145.351L106.451 147.552L106.048 148.96L107.687 149.831L110.611 149.408L110.503 147.175C111.466 146.6 112.484 146.124 113.543 145.754C114.784 145.402 114.663 145.421 116.192 144.948C117.722 144.474 117.255 144.602 117.991 144.359C118.727 144.116 119.443 143.815 119.443 143.815L119.495 141.498L120.711 137.287L121.459 137.78C122.202 138.279 123.315 136.468 123.315 136.468L123.84 133.268L122.33 132.48C121.45 132.301 120.558 132.194 119.661 132.16L117.555 131.053L115.789 127.936C115.212 127.31 114.72 126.61 114.323 125.856L115.136 124.32L116.135 122.4L117.178 122.951L118.138 123.463L119.155 123.994L120.819 122.919L121.747 120.32L123.027 119.181C123.859 118.426 124.442 119.821 124.442 119.821L125.811 118.1C127.187 116.378 126.048 117.178 125.344 116.295C125.184 116.051 124.965 115.852 124.708 115.716C124.451 115.58 124.163 115.51 123.872 115.514L121.37 112.525L119.379 113.28L119.098 114.221C118.823 115.168 119.098 114.221 116.211 113.088L115.264 110.33L115.834 109.69L115.968 107.13C115.968 107.13 114.311 106.317 113.05 105.639C111.789 104.96 111.501 103.226 111.501 103.226C111.481 102.273 111.675 101.328 112.071 100.461L111.431 98.6499L109.069 94.0355L109.466 91.9555L110.842 91.0915L111.386 88.3203L108.915 85.9779L109.907 84.0963L110.611 82.7587L111.431 81.1971L112.071 78.0355C112.071 78.0355 111.911 77.4467 111.763 76.7939" stroke="#263238" stroke-width="0.64" stroke-linecap="round" stroke-linejoin="round"/>
<path d="M91.5211 147.008C91.4714 146.951 91.4156 146.899 91.3547 146.854L92.0651 145.498L91.7771 142.938L90.8363 142.445C90.8363 142.445 91.9883 141.306 91.9179 140.397C91.9055 140.126 91.966 139.856 92.0932 139.616C92.2204 139.377 92.4096 139.175 92.6411 139.034L92.3339 137.344L91.8155 137.069C91.3035 136.8 91.6171 135.386 91.6171 135.386L89.4283 135.814L88.8331 138.118L86.6059 138.688C86.3038 138.47 86.052 138.19 85.8676 137.867C85.6832 137.543 85.5705 137.184 85.5371 136.813C85.5755 135.744 85.9851 135.962 85.9851 135.962H88.0459L89.3259 133.53L89.0635 132.358L88.1419 131.872" stroke="#263238" stroke-width="0.64" stroke-linecap="round" stroke-linejoin="round"/>
<path d="M88.0827 131.873C88.1851 131.93 87.5259 128.961 87.5259 128.961C87.5259 128.961 86.7067 126.791 85.8107 126.401C84.9147 126.01 82.8923 127.386 82.8923 127.386L80.6331 127.706L80.1211 130.42" stroke="#263238" stroke-width="0.64" stroke-linecap="round" stroke-linejoin="round"/>
<path d="M97.178 149.171L96.6404 150.823C95.7871 150.302 94.9786 149.756 94.2148 149.184L96.7428 146.688L96.5252 143.955C96.5252 143.955 96.058 142.944 96.954 143.143C97.3268 143.234 97.7182 143.214 98.0799 143.086C98.4416 142.957 98.7577 142.726 98.9892 142.419C99.514 141.824 99.45 141.568 100.807 142.285C102.164 143.002 102.253 143.482 102.452 144.032C102.65 144.583 100.116 148.467 100.116 148.467L101.012 148.941C101.012 148.941 100.487 150.157 101.376 150.419L97.178 149.171Z" stroke="#263238" stroke-width="0.64" stroke-linecap="round" stroke-linejoin="round"/>
<path d="M125.946 128.929L127.521 128.437L128.897 129.825C128.897 129.825 131.617 130.177 130.554 131.361C129.492 132.545 127.463 132.533 127.463 132.533L126.721 133.928L125.441 132.373L124.801 131.093L125.281 130.171L125.946 128.929Z" stroke="#263238" stroke-width="0.64" stroke-linecap="round" stroke-linejoin="round"/>
<path d="M128.205 122.99C127.883 123.372 127.647 123.82 127.514 124.302L127.412 124.903L124.852 123.559L126.247 120.916L128.205 122.99Z" stroke="#263238" stroke-width="0.64" stroke-linecap="round" stroke-linejoin="round"/>
<path d="M267.091 273.953C263.661 276.807 237.235 294.945 199.526 292.02C197.497 274.855 189.76 204.34 198.56 193.281C198.56 193.281 219.91 183.098 239.577 187.374C259.245 191.649 266.899 195.745 268.301 199.29C269.363 201.972 267.846 251.905 267.091 273.953Z" fill="#263238"/>
<path d="M238.924 194.906C227.596 204.717 213.004 202.643 213.324 195.11C213.376 193.933 214.636 192.474 214.636 192.474L214.195 191.795L212.275 188.896C210.873 186.726 209.12 184 207.897 182.016C206.873 180.326 232.403 164.621 232.403 173.651C232.403 186.374 238.649 188.768 238.649 188.768C241.004 189.715 243.2 191.213 238.924 194.906Z" fill="white" stroke="#263238" stroke-width="0.64" stroke-linecap="round" stroke-linejoin="round"/>
<path d="M246.086 214.336C246.086 214.336 243.801 222.17 244.883 224.416" stroke="white" stroke-width="0.64" stroke-linecap="round" stroke-linejoin="round"/>
<path d="M243.418 191.591C243.418 199.149 220.87 206.554 214.266 198.97" stroke="white" stroke-width="0.64" stroke-linecap="round" stroke-linejoin="round"/>
<path d="M224.869 182.867C224.869 182.867 223.359 188.563 216.319 193.011C215.983 192.435 215.441 192.007 214.802 191.814C214.59 191.78 214.374 191.78 214.162 191.814L212.242 188.915C215.884 186.291 224.869 182.867 224.869 182.867Z" fill="#263238"/>
<path d="M228.032 175.866C228.032 175.866 227.955 181.485 226.752 182.631C217.824 191.194 209.094 191.872 207.654 189.613C197.958 174.407 200.25 170.413 199.264 167.808C197.517 163.239 195.373 155.776 196.32 151.258C198.432 141.165 217.44 133.338 227.45 143.488C232.25 148.346 233.766 158.887 232.755 167.668" fill="white"/>
<path d="M228.032 175.866C228.032 175.866 227.955 181.485 226.752 182.631C217.824 191.194 209.094 191.872 207.654 189.613C197.958 174.407 200.25 170.413 199.264 167.808C197.517 163.239 195.373 155.776 196.32 151.258C198.432 141.165 217.44 133.338 227.45 143.488C232.25 148.346 233.766 158.887 232.755 167.668" stroke="#263238" stroke-width="0.64" stroke-linecap="round" stroke-linejoin="round"/>
<path d="M200.485 163.11C200.485 163.11 197.816 161.914 197.24 163.341" stroke="#263238" stroke-width="0.64" stroke-linecap="round" stroke-linejoin="round"/>
<path d="M206.957 163.2C206.957 163.2 212.506 160.877 215.002 163.699" stroke="#263238" stroke-width="0.64" stroke-linecap="round" stroke-linejoin="round"/>
<path d="M213.119 167.136C213.209 167.968 212.806 168.691 212.211 168.762C211.615 168.832 211.065 168.198 210.975 167.366C210.886 166.534 211.289 165.805 211.884 165.741C212.479 165.677 213.004 166.304 213.119 167.136Z" fill="#263238"/>
<path d="M202.238 167.386C202.334 168.218 201.925 168.947 201.33 169.011C200.734 169.075 200.184 168.454 200.094 167.622C200.005 166.79 200.408 166.061 201.003 165.997C201.598 165.933 202.136 166.554 202.238 167.386Z" fill="#263238"/>
<path d="M202.507 165.196C203.281 166.444 202.859 168.575 201.835 171.5C200.811 174.425 201.713 175.481 205.643 175.775" fill="white"/>
<path d="M202.507 165.196C203.281 166.444 202.859 168.575 201.835 171.5C200.811 174.425 201.713 175.481 205.643 175.775" stroke="#263238" stroke-width="0.64" stroke-linecap="round" stroke-linejoin="round"/>
<path d="M205.645 180.839C205.645 180.839 210.765 180.371 213.107 179.085" stroke="#263238" stroke-width="0.64" stroke-linecap="round" stroke-linejoin="round"/>
<path d="M238.08 151.821C238.08 148.019 234.329 140.218 227.75 139.341C223.968 135.386 218.579 133.933 212.038 135.437C196.921 138.906 192.32 153.831 191.66 156.301C191.596 156.531 191.564 156.659 191.564 156.659L195.609 155.635L193.868 159.034L195.987 160.435L195.5 160.973L197.958 163.341L197.19 159.015C197.664 156.224 200.876 152.32 200.876 152.32C199.704 153.84 198.973 155.654 198.764 157.562C200.044 154.24 207.724 151.162 207.724 151.162C205.235 153.184 203.884 157.139 203.884 157.139C206.252 154.221 211.801 152.333 215.353 151.328C216.55 154.215 218.451 157.229 221.164 158.899C223.724 160.474 223.635 163.725 223.635 163.725C226.389 165.64 228.418 168.426 229.395 171.635L232.492 175.872C232.492 175.872 238.08 169.018 238.08 151.821Z" fill="#263238"/>
<path d="M225.041 164.813C224.005 162.592 227.768 156.576 230.437 157.319C231.934 157.741 233.893 160.474 234.277 163.341C234.661 166.208 232.632 171.661 230.469 172.845C229.093 173.613 227.96 171.52 227.96 171.52" fill="white"/>
<path d="M225.041 164.813C224.005 162.592 227.768 156.576 230.437 157.319C231.934 157.741 233.893 160.474 234.277 163.341C234.661 166.208 232.632 171.661 230.469 172.845C229.093 173.613 227.96 171.52 227.96 171.52" stroke="#263238" stroke-width="0.64" stroke-linecap="round" stroke-linejoin="round"/>
<path d="M61.7656 273.44L134.079 256.531L284.914 273.952L246.079 300.512L61.7656 273.44Z" fill="white"/>
<path d="M61.7656 273.44L134.079 256.531L284.914 273.952" fill="white"/>
<path d="M61.7656 273.44L134.079 256.531L284.914 273.952" stroke="#263238" stroke-width="0.64" stroke-linecap="round" stroke-linejoin="round"/>
<path d="M124.346 276.831L153.619 263.891L190.631 265.804L174.17 279.878L124.346 276.831Z" fill="white" stroke="#263238" stroke-width="0.64" stroke-linecap="round" stroke-linejoin="round"/>
<path d="M199.985 192.64C190.597 196.48 188.574 205.113 172.619 239.232C172.619 239.232 165.534 240.684 161.739 249.292C157.944 257.9 164.299 264.697 171.614 264.467C171.614 264.467 174.552 267.027 180.574 266.764C186.597 266.502 213.214 225.772 213.214 225.772L199.985 192.64Z" fill="#263238"/>
<path d="M175.416 241.235C179.614 244.973 182.027 250.458 180.747 256.538" stroke="white" stroke-width="0.64" stroke-linecap="round" stroke-linejoin="round"/>
<path d="M179.469 243.034C179.469 243.034 184.627 244.161 185.427 250.765" stroke="white" stroke-width="0.64" stroke-linecap="round" stroke-linejoin="round"/>
<path d="M194.56 223.706C192.123 217.692 191.281 211.151 192.116 204.717" stroke="white" stroke-width="0.64" stroke-linecap="round" stroke-linejoin="round"/>
<path d="M193.831 215.002C193.44 217.69 196.218 232 196.199 247.047" stroke="white" stroke-width="0.64" stroke-linecap="round" stroke-linejoin="round"/>
<path d="M264.011 195.469C275.755 201.37 277.15 219.526 266.072 241.235C258.245 256.557 247.441 279.181 240.606 280.698C233.771 282.214 227.102 277.958 227.102 277.958C227.102 277.958 221.342 277.69 219.601 273.594C214.84 262.4 226.942 248.256 231.678 251.642C231.678 251.642 246.885 218.573 249.656 216.486" fill="#263238"/>
<path d="M218.514 266.791C216.959 259.066 229.119 249.952 231.679 251.642C231.679 251.642 240.709 252.148 242.059 258.394" stroke="white" stroke-width="0.64" stroke-linecap="round" stroke-linejoin="round"/>
<path d="M251.596 268.435C256.882 259.111 266.072 241.235 266.072 241.235" stroke="white" stroke-width="0.64" stroke-linecap="round" stroke-linejoin="round"/>
<path d="M231.68 251.642C231.68 251.642 238.009 247.853 242.739 251.437" stroke="white" stroke-width="0.64" stroke-linecap="round" stroke-linejoin="round"/>
<path d="M233.842 247.041C233.842 247.041 237.336 239.361 240.882 232.321C244.427 225.281 252.543 214.855 255.915 214.35" stroke="white" stroke-width="0.64" stroke-linecap="round" stroke-linejoin="round"/>
<path d="M167.141 260.845C166.381 260.808 165.638 260.605 164.965 260.25C154.085 254.573 145.624 245.19 140.53 238.458C138.549 235.884 136.726 233.194 135.07 230.4L137.682 219.213C137.682 219.213 140.139 225.613 150.014 231.904C159.89 238.195 171.621 240.269 175.416 246.624C178.776 252.16 172.856 261.12 167.141 260.845Z" fill="white"/>
<mask id="mask1_51_17390" style="mask-type:luminance" maskUnits="userSpaceOnUse" x="135" y="219" width="42" height="42">
<path d="M167.141 260.845C166.381 260.808 165.638 260.605 164.965 260.25C154.085 254.573 145.624 245.19 140.53 238.458C138.549 235.884 136.726 233.194 135.07 230.4L137.682 219.213C137.682 219.213 140.139 225.613 150.014 231.904C159.89 238.195 171.621 240.269 175.416 246.624C178.776 252.16 172.856 261.12 167.141 260.845Z" fill="white"/>
</mask>
<g mask="url(#mask1_51_17390)">
<path opacity="0.4" d="M167.141 260.845C167.019 260.036 166.805 259.243 166.501 258.483C164.216 252.762 150.392 241.389 150.392 241.389C147.102 241.287 143.486 239.917 140.542 238.458C138.557 235.885 136.73 233.194 135.07 230.4L137.682 219.213C137.682 219.213 140.139 225.613 150.014 231.904C159.89 238.195 171.621 240.269 175.416 246.624C178.776 252.16 172.856 261.12 167.141 260.845Z" fill="#FFB200"/>
</g>
<path d="M167.141 260.845C166.381 260.808 165.638 260.605 164.965 260.25C154.085 254.573 145.624 245.19 140.53 238.458C138.549 235.884 136.726 233.194 135.07 230.4L137.682 219.213C137.682 219.213 140.139 225.613 150.014 231.904C159.89 238.195 171.621 240.269 175.416 246.624C178.776 252.16 172.856 261.12 167.141 260.845Z" stroke="#263238" stroke-width="0.64" stroke-linecap="round" stroke-linejoin="round"/>
<path d="M142.501 229.722C142.501 229.722 141.151 235.687 137.592 234.349C135.672 233.626 131.973 227.892 131.275 224.999L142.501 229.722Z" fill="white" stroke="#263238" stroke-width="0.64" stroke-linecap="round" stroke-linejoin="round"/>
<path d="M126.814 192.993L129.72 191.495C129.72 191.495 137.931 191.566 143.026 195.706C147.653 199.47 150.002 205.364 150.002 205.364C150.002 205.364 167.979 195.438 186.341 201.134L193.829 242.868L159.403 245.121L137.918 224.711L126.814 192.993Z" fill="white" stroke="#263238" stroke-width="0.64" stroke-linecap="round" stroke-linejoin="round"/>
<path d="M196.197 244.537C196.197 244.537 192.159 244.416 186.757 244.595C178.591 244.851 167.308 245.772 162.149 248.774L161.906 248.691L157.183 247.04L157.087 246.899C156.216 245.619 149.196 235.539 139.167 231.436L124.984 191.808C124.984 191.808 139.704 192.448 147.749 205.747L151.788 207.206C151.788 207.206 175.82 200.089 189.272 202.649L196.197 244.537Z" fill="#FFB200"/>
<mask id="mask2_51_17390" style="mask-type:luminance" maskUnits="userSpaceOnUse" x="124" y="191" width="73" height="58">
<path d="M196.199 244.536C196.199 244.536 192.161 244.415 186.759 244.594C178.593 244.85 167.31 245.771 162.151 248.773L161.908 248.69L157.185 247.039L157.089 246.898C156.218 245.618 149.198 235.538 139.169 231.435L124.986 191.807C124.986 191.807 139.706 192.447 147.751 205.746L151.79 207.205C151.79 207.205 175.822 200.088 189.274 202.648L196.199 244.536Z" fill="white"/>
</mask>
<g mask="url(#mask2_51_17390)">
<path opacity="0.3" d="M157.089 246.905C156.218 245.625 149.198 235.545 139.169 231.442L124.986 191.813C124.986 191.813 139.706 192.453 147.751 205.753L157.089 246.905Z" fill="black" fill-opacity="0.7"/>
<path opacity="0.3" d="M186.759 244.594C178.593 244.85 167.31 245.772 162.151 248.774L161.908 248.69L152.475 208.639C152.475 208.639 160.193 206.905 162.567 207.782C162.561 207.794 178.254 219.372 186.759 244.594Z" fill="black" fill-opacity="0.7"/>
</g>
<path d="M196.197 244.537C196.197 244.537 192.159 244.416 186.757 244.595C178.591 244.851 167.308 245.772 162.149 248.774L161.906 248.691L157.183 247.04L157.087 246.899C156.216 245.619 149.196 235.539 139.167 231.436L124.984 191.808C124.984 191.808 139.704 192.448 147.749 205.747L151.788 207.206C151.788 207.206 175.82 200.089 189.272 202.649L196.197 244.537Z" stroke="#263238" stroke-width="0.64" stroke-linecap="round" stroke-linejoin="round"/>
<path d="M151.801 207.213L161.062 245.632" stroke="#263238" stroke-width="0.64" stroke-linecap="round" stroke-linejoin="round"/>
<path d="M157.184 247.047L148.186 208.653" stroke="#263238" stroke-width="0.64" stroke-linecap="round" stroke-linejoin="round"/>
<path d="M134.324 230.433C132.269 229.863 128.128 217.517 130.023 212.199C130.023 212.199 132.276 208.289 133.223 208.02C134.656 207.604 140.442 207.725 140.16 208.698C139.52 210.951 135.079 210.913 135.079 210.913L133.639 213.549L133.696 215.002C133.696 215.002 135.789 213.479 136.557 213.524C136.954 213.524 139.002 214.548 140.628 215.405C142.016 216.141 142.868 216.545 142.548 217.21C141.517 219.425 137.133 217.85 137.133 217.85L135.482 220.34C135.482 220.34 137.076 220.615 137.773 220.692C138.471 220.769 144.263 224.628 144.09 225.108C143.405 226.989 137.914 224.954 137.914 224.954L136.941 225.767C136.941 225.767 140.986 226.81 141.421 226.964C142.061 227.201 144.525 229.095 144.487 229.313C144.192 230.977 140.794 229.754 140.794 229.754L137.818 229.633C137.365 230.032 136.819 230.314 136.231 230.452" fill="white"/>
<path d="M134.324 230.433C132.269 229.863 128.128 217.517 130.023 212.199C130.023 212.199 132.276 208.289 133.223 208.02C134.656 207.604 140.442 207.725 140.16 208.698C139.52 210.951 135.079 210.913 135.079 210.913L133.639 213.549L133.696 215.002C133.696 215.002 135.789 213.479 136.557 213.524C136.954 213.524 139.002 214.548 140.628 215.405C142.016 216.141 142.868 216.545 142.548 217.21C141.517 219.425 137.133 217.85 137.133 217.85L135.482 220.34C135.482 220.34 137.076 220.615 137.773 220.692C138.471 220.769 144.263 224.628 144.09 225.108C143.405 226.989 137.914 224.954 137.914 224.954L136.941 225.767C136.941 225.767 140.986 226.81 141.421 226.964C142.061 227.201 144.525 229.095 144.487 229.313C144.192 230.977 140.794 229.754 140.794 229.754L137.818 229.633C137.365 230.032 136.819 230.314 136.231 230.452" stroke="#263238" stroke-width="0.64" stroke-linecap="round" stroke-linejoin="round"/>
<path d="M133.67 215.002C133.67 215.002 131.75 216.615 131.258 217.082C130.765 217.549 130.886 219.034 130.886 219.034" stroke="#263238" stroke-width="0.64" stroke-linecap="round" stroke-linejoin="round"/>
<path d="M132.281 222.311C132.281 223.936 133.369 224.922 133.868 225.447C134.368 225.971 133.068 227.399 134.508 228.423" stroke="#263238" stroke-width="0.64" stroke-linecap="round" stroke-linejoin="round"/>
<path d="M227.078 273.837C223.014 274.944 218.598 267.802 213.209 260.007C209.65 254.887 205.67 249.427 201.094 245.927C200.729 245.651 200.358 245.383 199.986 245.127L202.662 231.687C208.217 234.599 211.66 239.264 217.426 244.058C226.706 251.783 234.93 256.525 237.209 259.943C239.487 263.36 234.041 271.936 227.078 273.837Z" fill="white"/>
<mask id="mask3_51_17390" style="mask-type:luminance" maskUnits="userSpaceOnUse" x="199" y="231" width="39" height="43">
<path d="M227.078 273.838C223.014 274.945 218.598 267.803 213.209 260.007C209.65 254.887 205.67 249.428 201.094 245.927C200.729 245.652 200.358 245.384 199.986 245.127L202.662 231.688C208.217 234.599 211.66 239.265 217.426 244.059C226.706 251.783 234.93 256.526 237.209 259.943C239.487 263.361 234.041 271.937 227.078 273.838Z" fill="white"/>
</mask>
<g mask="url(#mask3_51_17390)">
<path opacity="0.4" d="M213.209 260C209.651 254.88 205.67 249.421 201.094 245.92C201.697 245.951 202.3 245.86 202.867 245.651C202.867 245.651 210.099 251.52 213.209 260Z" fill="#FFB200"/>
</g>
<path d="M227.078 273.837C223.014 274.944 218.598 267.802 213.209 260.007C209.65 254.887 205.67 249.427 201.094 245.927C200.729 245.651 200.358 245.383 199.986 245.127L202.662 231.687C208.217 234.599 211.66 239.264 217.426 244.058C226.706 251.783 234.93 256.525 237.209 259.943C239.487 263.36 234.041 271.936 227.078 273.837Z" stroke="#263238" stroke-width="0.64" stroke-linecap="round" stroke-linejoin="round"/>
<path d="M204.158 244.595C203.88 245.092 203.422 245.463 202.878 245.632C202.734 245.689 202.586 245.738 202.437 245.779H202.315C198.021 246.899 188.357 244.57 188.357 244.57C188.357 244.57 182.027 241.562 181.643 240.851C181.375 240.288 181.138 239.712 180.933 239.123L180.76 238.618C180.76 238.618 178.481 237.338 178.2 236.339C177.918 235.341 177.438 235.059 178.84 234.88C180.241 234.701 187.8 234.88 187.8 234.88L179.576 231.527C179.576 231.527 174.129 228.781 173.624 227.815C173.118 226.848 172.485 226.208 175.269 226.592C178.053 226.976 184.133 228.743 184.133 228.743L188.926 229.76L184.165 227.731C184.165 227.731 174.795 226.599 176.568 223.687H181.886C184.899 223.82 187.896 224.201 190.846 224.826C192.395 225.299 202.635 231.661 202.635 231.661" fill="white"/>
<mask id="mask4_51_17390" style="mask-type:luminance" maskUnits="userSpaceOnUse" x="173" y="223" width="32" height="24">
<path d="M204.158 244.596C203.88 245.093 203.422 245.464 202.878 245.633C202.734 245.69 202.586 245.739 202.437 245.78H202.315C198.021 246.9 188.357 244.571 188.357 244.571C188.357 244.571 182.027 241.563 181.643 240.852C181.375 240.289 181.138 239.713 180.933 239.124L180.76 238.619C180.76 238.619 178.481 237.339 178.2 236.34C177.918 235.342 177.438 235.06 178.84 234.881C180.241 234.702 187.8 234.881 187.8 234.881L179.576 231.528C179.576 231.528 174.129 228.782 173.624 227.815C173.118 226.849 172.485 226.209 175.269 226.593C178.053 226.977 184.133 228.743 184.133 228.743L188.926 229.761L184.165 227.732C184.165 227.732 174.795 226.6 176.568 223.688H181.886C184.899 223.821 187.896 224.202 190.846 224.827C192.395 225.3 202.635 231.662 202.635 231.662" fill="white"/>
</mask>
<g mask="url(#mask4_51_17390)">
<path opacity="0.4" d="M202.302 245.805C198.008 246.925 188.344 244.596 188.344 244.596C188.344 244.596 182.014 241.588 181.63 240.877C181.363 240.315 181.126 239.738 180.92 239.149L188.69 240.001C188.418 240.49 188.275 241.041 188.275 241.601C188.275 242.16 188.418 242.711 188.69 243.201C189.554 244.756 199.397 246.33 202.302 245.805Z" fill="#FFB200"/>
</g>
<path d="M204.158 244.595C203.88 245.092 203.422 245.463 202.878 245.632C202.734 245.689 202.586 245.738 202.437 245.779H202.315C198.021 246.899 188.357 244.57 188.357 244.57C188.357 244.57 182.027 241.562 181.643 240.851C181.375 240.288 181.138 239.712 180.933 239.123L180.76 238.618C180.76 238.618 178.481 237.338 178.2 236.339C177.918 235.341 177.438 235.059 178.84 234.88C180.241 234.701 187.8 234.88 187.8 234.88L179.576 231.527C179.576 231.527 174.129 228.781 173.624 227.815C173.118 226.848 172.485 226.208 175.269 226.592C178.053 226.976 184.133 228.743 184.133 228.743L188.926 229.76L184.165 227.731C184.165 227.731 174.795 226.599 176.568 223.687H181.886C184.899 223.82 187.896 224.201 190.846 224.826C192.395 225.299 202.635 231.661 202.635 231.661" stroke="#263238" stroke-width="0.64" stroke-linecap="round" stroke-linejoin="round"/>
<path d="M180.748 238.644L190.098 240.02" stroke="#263238" stroke-width="0.64" stroke-linecap="round" stroke-linejoin="round"/>
<path d="M87.5391 267.277L110.976 274.317L153.856 264.531C153.856 264.531 127.667 257.094 127.424 257.28C127.181 257.465 87.5391 267.277 87.5391 267.277Z" fill="#FFB200"/>
<mask id="mask5_51_17390" style="mask-type:luminance" maskUnits="userSpaceOnUse" x="87" y="257" width="67" height="18">
<path d="M87.5371 267.276L110.974 274.316L153.854 264.53C153.854 264.53 127.665 257.093 127.422 257.279C127.179 257.464 87.5371 267.276 87.5371 267.276Z" fill="white"/>
</mask>
<g mask="url(#mask5_51_17390)">
<path opacity="0.3" d="M87.5371 267.276L110.974 274.316L153.854 264.53C153.854 264.53 127.665 257.093 127.422 257.279C127.179 257.464 87.5371 267.276 87.5371 267.276Z" fill="black" fill-opacity="0.7"/>
</g>
<path d="M87.5391 267.277L110.976 274.317L153.856 264.531C153.856 264.531 127.667 257.094 127.424 257.28C127.181 257.465 87.5391 267.277 87.5391 267.277Z" stroke="#263238" stroke-width="0.64" stroke-linecap="round" stroke-linejoin="round"/>
<path d="M87.8767 259.02C86.2319 259.136 85.8223 265.062 87.5375 267.276L125.4 259.417L128.434 252.236L87.8767 259.02Z" fill="#FFB200"/>
<mask id="mask6_51_17390" style="mask-type:luminance" maskUnits="userSpaceOnUse" x="86" y="252" width="43" height="16">
<path d="M87.8767 259.02C86.2319 259.136 85.8223 265.062 87.5375 267.276L125.4 259.417L128.434 252.236L87.8767 259.02Z" fill="white"/>
</mask>
<g mask="url(#mask6_51_17390)">
<path opacity="0.3" d="M87.8767 259.02C86.2319 259.136 85.8223 265.062 87.5375 267.276L125.4 259.417L128.434 252.236L87.8767 259.02Z" fill="black" fill-opacity="0.7"/>
</g>
<path d="M87.8767 259.02C86.2319 259.136 85.8223 265.062 87.5375 267.276L125.4 259.417L128.434 252.236L87.8767 259.02Z" stroke="#263238" stroke-width="0.64" stroke-linecap="round" stroke-linejoin="round"/>
<path d="M152.019 258.938C152.019 258.938 151.456 262.055 151.821 263.975L110.931 273.229L89.3758 266.88C89.3758 266.88 87.1358 262.919 89.0878 259.84L128.473 253.152L152.019 258.938Z" fill="white" stroke="#263238" stroke-width="0.64" stroke-linecap="round" stroke-linejoin="round"/>
<path d="M87.877 259.02L128.434 252.236L153.618 258.617L111.263 267.059L87.877 259.02Z" fill="#FFB200" stroke="#263238" stroke-width="0.64" stroke-linecap="round" stroke-linejoin="round"/>
<path d="M89.3184 262.809L110.765 269.196L145.869 262.131" stroke="#263238" stroke-width="0.64" stroke-linecap="round" stroke-linejoin="round"/>
<path d="M151.704 262.784L113.957 270.835" stroke="#263238" stroke-width="0.64" stroke-linecap="round" stroke-linejoin="round"/>
<path d="M89.8223 265.325C90.1487 265.357 105.989 270.234 105.989 270.234" stroke="#263238" stroke-width="0.64" stroke-linecap="round" stroke-linejoin="round"/>
<path d="M148.619 261.306L151.621 260.819" stroke="#263238" stroke-width="0.64" stroke-linecap="round" stroke-linejoin="round"/>
<path d="M110.066 271.418L108.473 271.06" stroke="#263238" stroke-width="0.64" stroke-linecap="round" stroke-linejoin="round"/>
<path d="M89.0871 259.84C89.9264 260.807 90.412 262.03 90.4644 263.309C90.5167 264.589 90.1326 265.848 89.3751 266.88C88.6739 265.851 88.2752 264.645 88.2243 263.401C88.1734 262.157 88.4723 260.923 89.0871 259.84Z" fill="#263238"/>
<mask id="mask7_51_17390" style="mask-type:luminance" maskUnits="userSpaceOnUse" x="88" y="259" width="3" height="8">
<path d="M89.0871 259.84C89.9264 260.807 90.412 262.03 90.4644 263.309C90.5167 264.589 90.1326 265.848 89.3751 266.88C88.6739 265.851 88.2752 264.645 88.2243 263.401C88.1734 262.157 88.4723 260.923 89.0871 259.84Z" fill="white"/>
</mask>
<g mask="url(#mask7_51_17390)">
<path opacity="0.3" d="M89.0871 259.84C89.9264 260.807 90.412 262.03 90.4644 263.309C90.5167 264.589 90.1326 265.848 89.3751 266.88C88.6739 265.851 88.2752 264.645 88.2243 263.401C88.1734 262.157 88.4723 260.923 89.0871 259.84Z" fill="white" fill-opacity="0.7"/>
</g>
<path d="M89.0871 259.84C89.9264 260.807 90.412 262.03 90.4644 263.309C90.5167 264.589 90.1326 265.848 89.3751 266.88C88.6739 265.851 88.2752 264.645 88.2243 263.401C88.1734 262.157 88.4723 260.923 89.0871 259.84Z" stroke="#263238" stroke-width="0.64" stroke-linecap="round" stroke-linejoin="round"/>
<path d="M176.683 269.196L217.611 270.873L213.624 284.959L163.275 283.039L176.683 269.196Z" fill="white"/>
<mask id="mask8_51_17390" style="mask-type:luminance" maskUnits="userSpaceOnUse" x="163" y="269" width="55" height="16">
<path d="M176.683 269.196L217.611 270.873L213.624 284.959L163.275 283.039L176.683 269.196Z" fill="white"/>
</mask>
<g mask="url(#mask8_51_17390)">
<path opacity="0.4" d="M176.683 269.196L217.611 270.873L213.624 284.959L163.275 283.039L176.683 269.196Z" fill="#FFB200"/>
</g>
<path d="M176.683 269.196L217.611 270.873L213.624 284.959L163.275 283.039L176.683 269.196Z" stroke="#263238" stroke-width="0.64" stroke-linecap="round" stroke-linejoin="round"/>
</svg>
