<svg width="64" height="64" viewBox="0 0 64 64" fill="none" xmlns="http://www.w3.org/2000/svg">
<path d="M61.4316 19.2221C61.4316 16.2658 59.0349 13.8691 56.0786 13.8691H7.92131C4.96497 13.8691 2.56836 16.2658 2.56836 19.2221V58.4727H61.4316V19.2221Z" fill="#A59CA6"/>
<path d="M38.8423 51.7017C37.6495 51.7017 36.534 52.2917 35.8627 53.2778C35.7121 53.4991 35.462 53.6317 35.1943 53.6317H28.6766C28.4089 53.6317 28.1588 53.499 28.0082 53.2776C27.3371 52.2917 26.2217 51.7017 25.029 51.7017H12.6991C11.2097 51.7017 10.0025 50.4944 10.0025 49.0051V17.8215C10.0025 16.2562 10.6746 14.848 11.7457 13.8691H7.92131C4.96497 13.8691 2.56836 16.2658 2.56836 19.2221V58.4727H8.04537H61.4314V57.0721V51.7018L38.8423 51.7017Z" fill="#8F8390"/>
<path d="M37.995 54.7294L37.705 55.1557C37.2556 55.816 36.5085 56.2113 35.7098 56.2113H28.1612C27.3625 56.2113 26.6155 55.8161 26.1661 55.1557L25.876 54.7295C25.6851 54.449 25.3679 54.2813 25.0287 54.2813H0.803084C0.359563 54.2813 0 54.6408 0 55.0843V56.2952C0 59.4077 2.52326 61.931 5.63577 61.931H58.3641C61.4767 61.931 63.9999 59.4077 63.9999 56.2952V55.0843C63.9999 54.6408 63.6403 54.2813 63.1968 54.2813H38.8423C38.5031 54.2811 38.1859 54.4489 37.995 54.7294Z" fill="#A59CA6"/>
<path d="M21.2575 25.6761H41.7734C44.9809 25.6761 47.5904 23.0667 47.5904 19.8591V13.8701H15.4404V19.8591C15.4404 23.0667 18.0498 25.6761 21.2575 25.6761Z" fill="#8F8390"/>
<path d="M56.0785 17.9951C56.7555 17.9951 57.3044 18.544 57.3044 19.2211V49.3759C57.3044 49.8051 56.9565 50.153 56.5273 50.153H7.47247C7.04327 50.153 6.69531 49.8051 6.69531 49.3759V19.2211C6.69531 18.544 7.2442 17.9951 7.92128 17.9951H56.0785Z" fill="#B3E5EE"/>
<path d="M21.2575 25.6752H41.7734C44.9809 25.6752 47.5904 23.0658 47.5904 19.8583V17.9961H15.4404V19.8583C15.4404 23.0658 18.0498 25.6752 21.2575 25.6752Z" fill="#86D7E5"/>
<path d="M10.0026 49.0052V17.9961H7.92128C7.2442 17.9961 6.69531 18.545 6.69531 19.2221V49.3769C6.69531 49.8061 7.04327 50.154 7.47247 50.154H10.2622C10.0974 49.8052 10.0026 49.4167 10.0026 49.0052Z" fill="#86D7E5"/>
<path d="M41.774 23.0955H21.2581C19.47 23.0955 18.0205 21.6459 18.0205 19.8579V5.305C18.0205 3.51685 19.4701 2.06738 21.2581 2.06738H41.7741C43.5622 2.06738 45.0117 3.51698 45.0117 5.305V19.8577C45.0117 21.6459 43.5621 23.0955 41.774 23.0955Z" fill="#D9F2F6"/>
<path d="M25.2948 19.905C23.5067 19.905 22.0572 18.4553 22.0572 16.6673V2.11459C22.0572 2.09872 22.0582 2.08312 22.0584 2.06738H21.2581C19.47 2.06738 18.0205 3.51698 18.0205 5.305V19.8577C18.0205 21.6459 19.4701 23.0954 21.2581 23.0954H41.7741C43.5464 23.0954 44.9851 21.6712 45.0105 19.9048L25.2948 19.905Z" fill="#B3E5EE"/>
<path d="M27.4043 16.0767V9.08543C27.4043 7.9037 28.688 7.16896 29.707 7.76763L35.6564 11.2632C36.662 11.854 36.662 13.308 35.6564 13.8988L29.707 17.3943C28.688 17.993 27.4043 17.2584 27.4043 16.0767Z" fill="#F9F7F7"/>
<path d="M41.3383 45.2531V50.1526H22.6611V45.2531C22.6611 43.4311 23.3872 41.6836 24.6808 40.3961L26.5224 38.5611L29.6731 35.458H34.5958L37.477 38.5611L39.3186 40.3961C40.6122 41.6836 41.3383 43.4311 41.3383 45.2531Z" fill="#F9F7F7"/>
<path d="M37.4566 38.5416L34.5755 35.4385H31.8193H29.6526L26.5019 38.5416L24.6603 40.3765C23.3667 41.664 22.6406 43.4115 22.6406 45.2336V50.1331H27.4253V45.945C27.4253 45.124 27.5731 44.3184 27.8538 43.5631C28.0982 42.9055 28.813 42.5494 29.4869 42.7445C30.2784 42.9737 31.1146 43.0965 31.9792 43.0965C34.7238 43.0965 37.1834 41.8586 38.8336 39.9135C38.8337 39.9135 37.4566 38.5416 37.4566 38.5416Z" fill="#F2EAE7"/>
<path d="M32.0005 41.1825C35.8964 41.1825 39.0546 38.0243 39.0546 34.1284C39.0546 30.2325 35.8964 27.0742 32.0005 27.0742C28.1045 27.0742 24.9463 30.2325 24.9463 34.1284C24.9463 38.0243 28.1045 41.1825 32.0005 41.1825Z" fill="#F9F7F7"/>
<path d="M28.756 34.1284C28.756 30.8928 30.9336 28.1654 33.9038 27.334C33.2976 27.1642 32.6608 27.0742 32.0005 27.0742C28.1046 27.0742 24.9463 30.2325 24.9463 34.1284C24.9463 38.0242 28.1046 41.1825 32.0005 41.1825C32.6608 41.1825 33.3015 41.0927 33.9076 40.9229C30.9375 40.0915 28.756 37.3639 28.756 34.1284Z" fill="#F2EAE7"/>
</svg>
