<?xml version="1.0" encoding="UTF-8"?>
<!-- Generator: Adobe Illustrator 24.2.3, SVG Export Plug-In . SVG Version: 6.00 Build 0)  -->
<svg xmlns="http://www.w3.org/2000/svg" xmlns:xlink="http://www.w3.org/1999/xlink" version="1.1" id="Capa_1" x="0px" y="0px" viewBox="0 0 512.008 512.008" style="enable-background:new 0 0 512.008 512.008;" xml:space="preserve" width="512" height="512">
<g>
	<g>
		<path d="M457.539,512H54.47c-41.005,0.695-68.06-45.852-47.153-81.131c0.32-0.594,201.379-403.242,201.709-403.767    C218.84,10.131,236.402,0,256.005,0c19.602,0,37.164,10.131,46.978,27.1c0.614,0.423,201.188,403.253,201.711,403.769    C525.593,466.16,498.555,512.688,457.539,512z M228.229,37.844c-0.32,0.595-201.361,403.205-201.691,403.731    c-5.844,10.104-5.85,22.171-0.019,32.28C32.351,483.965,42.799,490,54.47,490h403.069c11.671,0,22.12-6.036,27.952-16.145    c5.831-10.109,5.824-22.176-0.019-32.278c0.217-0.556-201.767-403.12-201.692-403.733    C271.838,16.83,240.167,16.836,228.229,37.844z"/>
	</g>
	<g>
		<path style="fill:#277BC0;" d="M256.49,337.391c-16.6,0-30.699-12.891-32.154-29.45l-12.606-130.242    c-1.095-12.452,3.082-24.788,11.451-33.942c16.893-19.035,48.369-19.134,65.37-0.182c8.399,9.084,12.647,21.367,11.656,33.699    l-11.55,130.473C287.287,324.606,273.409,337.394,256.49,337.391z M255.952,151.315c-12.832-0.261-23.703,11.597-22.315,24.361    c0,0,12.606,130.242,12.606,130.242c1.417,12.515,19.144,12.598,20.488,0.021c0.003,0.014,11.549-130.497,11.554-130.517    C279.557,162.817,268.667,151.029,255.952,151.315z"/>
	</g>
	<g>
		<path style="fill:#277BC0;" d="M255.95,452.785c-21.95,0-39.808-17.857-39.808-39.808c2.187-52.81,77.437-52.794,79.615,0    C295.758,434.928,277.9,452.785,255.95,452.785z M255.95,395.17c-9.819,0-17.808,7.988-17.808,17.807    c0.978,23.624,34.641,23.617,35.615,0C273.758,403.159,265.77,395.17,255.95,395.17z"/>
	</g>
</g>















</svg>
